<?xml version="1.0" encoding="UTF-8" standalone="no"?>
<!-- Created with Inkscape (http://www.inkscape.org/) -->

<svg
   width="69.673805mm"
   height="42.865654mm"
   viewBox="-1 -1 73.508079 45.224627"
   version="1.1"
   id="svg1"
   inkscape:version="1.3.2 (091e20e, 2023-11-25, custom)"
   sodipodi:docname="cone-schematic.svg"
   inkscape:export-filename="cone-schematic.png"
   inkscape:export-xdpi="600"
   inkscape:export-ydpi="600"
   xmlns:inkscape="http://www.inkscape.org/namespaces/inkscape"
   xmlns:sodipodi="http://sodipodi.sourceforge.net/DTD/sodipodi-0.dtd"
   xmlns="http://www.w3.org/2000/svg"
   xmlns:svg="http://www.w3.org/2000/svg">
  <sodipodi:namedview
     id="namedview1"
     pagecolor="#ffffff"
     bordercolor="#000000"
     borderopacity="0.25"
     inkscape:showpageshadow="2"
     inkscape:pageopacity="0.0"
     inkscape:pagecheckerboard="0"
     inkscape:deskcolor="#d1d1d1"
     inkscape:document-units="mm"
     inkscape:zoom="5.8709306"
     inkscape:cx="108.50069"
     inkscape:cy="35.854622"
     inkscape:window-width="2560"
     inkscape:window-height="1361"
     inkscape:window-x="-9"
     inkscape:window-y="-9"
     inkscape:window-maximized="1"
     inkscape:current-layer="layer1" />
  <defs
     id="defs1">
    <marker
       style="overflow:visible"
       id="ConcaveTriangle"
       refX="0"
       refY="0"
       orient="auto-start-reverse"
       inkscape:stockid="Concave triangle arrow"
       markerWidth="1"
       markerHeight="1"
       viewBox="0 0 1 1"
       inkscape:isstock="true"
       inkscape:collect="always"
       preserveAspectRatio="xMidYMid">
      <path
         transform="scale(0.7)"
         d="M -2,-4 9,0 -2,4 c 2,-2.33 2,-5.66 0,-8 z"
         style="fill:context-stroke;fill-rule:evenodd;stroke:none"
         id="path7" />
    </marker>
  </defs>
  <g
     inkscape:label="Layer 1"
     inkscape:groupmode="layer"
     id="layer1"
     transform="translate(-28.411262,-32.612017)">
    <path
       style="fill:#a7b103;fill-opacity:0.571429;stroke:#000000;stroke-width:0.211006;stroke-miterlimit:6;stroke-dasharray:none;stroke-dashoffset:0;stroke-opacity:0.693878"
       d="M 27.521068,55.363334 53.881188,70.55651 100.79472,43.508754 V 76.731142 H 27.517766 Z"
       id="path1-1-0"
       sodipodi:nodetypes="cccccc" />
    <path
       style="fill:none;stroke:#000000;stroke-width:0.31651;stroke-miterlimit:6;stroke-dasharray:none;stroke-opacity:1"
       d="M 53.88093,62.586695 V 32.654257"
       id="path2"
       sodipodi:nodetypes="cc" />
    <path
       style="fill:none;fill-opacity:0.242347;stroke:#8d9092;stroke-width:0.499999;stroke-miterlimit:6;stroke-dasharray:2.99999, 0.499999;stroke-dashoffset:0;stroke-opacity:1"
       d="M 84.533909,41.488345 H 52.631707"
       id="path5-0"
       sodipodi:nodetypes="cc" />
    <path
       style="fill:none;stroke:#0001ff;stroke-width:0.31650953;stroke-miterlimit:6;stroke-dasharray:none;stroke-dashoffset:0;stroke-opacity:1"
       d="M 100.79447,32.439348 53.88093,59.487104 27.718331,44.403195"
       id="path1-1"
       sodipodi:nodetypes="ccc" />
    <path
       style="fill:none;fill-opacity:0.242347;stroke:#8d9092;stroke-width:0.499999;stroke-miterlimit:6;stroke-dasharray:2.99999, 0.499999;stroke-dashoffset:0;stroke-opacity:1"
       d="M 85.174084,42.022078 V 60.674677"
       id="path5" />
    <path
       d="m 74.871813,54.606432 c 0,-1.32683 -0.78283,-1.738147 -1.40644,-1.738147 -1.16761,0 -2.28214,1.207415 -2.28214,2.401562 0,0.796098 0.50419,1.432976 1.3799,1.432976 0.53073,0 1.14107,-0.199024 1.77795,-0.716488 0.10615,0.451122 0.38478,0.716488 0.76956,0.716488 0.45112,0 0.71649,-0.46439 0.71649,-0.597073 0,-0.06634 -0.0531,-0.09288 -0.10615,-0.09288 -0.0531,0 -0.0796,0.02654 -0.10614,0.09288 -0.15922,0.411317 -0.46439,0.411317 -0.47766,0.411317 -0.26537,0 -0.26537,-0.663415 -0.26537,-0.862439 0,-0.172488 0,-0.199025 0.0929,-0.291903 0.7961,-1.008391 0.96859,-1.990245 0.96859,-1.990245 0,-0.02654 -0.0133,-0.09288 -0.10615,-0.09288 -0.0796,0 -0.0796,0.02654 -0.11941,0.185756 -0.15922,0.530732 -0.43786,1.167611 -0.83591,1.671806 z m -0.55727,1.16761 c -0.75629,0.650147 -1.40644,0.743025 -1.73814,0.743025 -0.5042,0 -0.76956,-0.384781 -0.76956,-0.928781 0,-0.411317 0.22556,-1.32683 0.49092,-1.751415 0.39805,-0.62361 0.86244,-0.78283 1.15434,-0.78283 0.83591,0 0.83591,1.114537 0.83591,1.764684 0,0.318439 0,0.809366 0.0265,0.955317 z m 0,0"
       id="id-e15353ad-394f-4691-aaa8-40a9604f2693"
       style="fill:#000000;fill-opacity:1;stroke-width:0.849171" />
    <path
       style="fill:#009bb1;fill-opacity:0.242347;stroke:#000000;stroke-width:0.31650953;stroke-miterlimit:6;stroke-dasharray:none;stroke-dashoffset:0;stroke-opacity:1"
       d="M 92.949445,59.519502 H 47.143606"
       id="path3"
       sodipodi:nodetypes="cc" />
    <path
       style="fill:none;fill-opacity:0.242347;stroke:#787878;stroke-width:0.5;stroke-miterlimit:6;stroke-dasharray:none;stroke-dashoffset:0;stroke-opacity:1;marker-start:url(#ConcaveTriangle)"
       id="path4"
       sodipodi:type="arc"
       sodipodi:cx="54.301289"
       sodipodi:cy="59.431866"
       sodipodi:rx="15.136551"
       sodipodi:ry="15.136551"
       sodipodi:start="5.9648146"
       sodipodi:end="0"
       sodipodi:arc-type="arc"
       d="m 68.677178,54.693829 a 15.136551,15.136551 0 0 1 0.760662,4.738037"
       sodipodi:open="true" />
    <path
       d="m 82.466854,67.215725 c -0.0265,0.106146 -0.0265,0.119414 -0.0265,0.145951 0,0.119415 0.0929,0.225561 0.23883,0.225561 0.17248,0 0.27863,-0.159219 0.2919,-0.185756 0.0531,-0.06634 0.31844,-1.207415 0.544,-2.122928 0.17249,0.344976 0.43785,0.570537 0.8359,0.570537 0.99512,0 2.08313,-1.194147 2.08313,-2.454635 0,-0.902244 -0.55727,-1.379903 -1.16761,-1.379903 -0.82264,0 -1.71162,0.849171 -1.96371,1.884098 z m 1.8841,-1.552391 c -0.59707,0 -0.72975,-0.676683 -0.72975,-0.756293 0,-0.02654 0.0398,-0.199025 0.0663,-0.305171 0.23883,-0.955317 0.31844,-1.260488 0.50419,-1.592196 0.37152,-0.62361 0.7961,-0.809366 1.0482,-0.809366 0.31844,0 0.5838,0.252098 0.5838,0.835903 0,0.46439 -0.23883,1.406439 -0.46439,1.817757 -0.27863,0.544 -0.68995,0.809366 -1.00839,0.809366 z m 0,0"
       id="id-a09edea7-093c-4c63-bf94-bad5088f7df0"
       style="fill:#000000;fill-opacity:1;stroke-width:0.849171" />
    <g
       id="g5"
       transform="translate(-86.618153,0.63093348)">
      <path
         d="m 125.17907,36.380431 c 0,0 0,-0.09288 -0.10615,-0.09288 -0.19902,0 -0.80936,0.06634 -1.03493,0.09288 -0.0663,0 -0.15921,0.01327 -0.15921,0.15922 0,0.106146 0.0796,0.106146 0.19902,0.106146 0.41132,0 0.42459,0.05307 0.42459,0.145951 l -0.0265,0.172488 -1.22068,4.869466 c -0.0398,0.119414 -0.0398,0.132683 -0.0398,0.185756 0,0.199024 0.17249,0.238829 0.2521,0.238829 0.13268,0 0.26536,-0.106146 0.30517,-0.225561 l 0.15922,-0.636878 0.18575,-0.756293 c 0.0531,-0.199025 0.10615,-0.384781 0.14596,-0.570537 0.0133,-0.05307 0.0929,-0.331708 0.0929,-0.384781 0.0265,-0.07961 0.29191,-0.544 0.58381,-0.782829 0.18576,-0.132683 0.43785,-0.291903 0.80937,-0.291903 0.35824,0 0.45112,0.291903 0.45112,0.597073 0,0.451123 -0.31844,1.379904 -0.51747,1.897367 -0.0663,0.185756 -0.11941,0.291903 -0.11941,0.464391 0,0.398049 0.30517,0.689951 0.70322,0.689951 0.7961,0 1.10127,-1.233952 1.10127,-1.300293 0,-0.09288 -0.0663,-0.09288 -0.0929,-0.09288 -0.0929,0 -0.0929,0.02654 -0.13268,0.159219 -0.11942,0.451122 -0.39805,1.048196 -0.86244,1.048196 -0.14595,0 -0.19903,-0.07961 -0.19903,-0.278634 0,-0.212293 0.0663,-0.411318 0.14595,-0.597074 0.13269,-0.371512 0.51747,-1.379903 0.51747,-1.87083 0,-0.544 -0.33171,-0.902244 -0.96859,-0.902244 -0.53073,0 -0.94205,0.265366 -1.26049,0.650147 z m 0,0"
         id="id-a1107fc4-726f-4c3e-a201-030d4a40ff43"
         style="fill:#000000;fill-opacity:1;stroke-width:0.849171" />
      <path
         d="m 130.42822,44.195459 c 0,-0.02654 0,-0.03981 -0.14595,-0.185757 -1.0482,-1.061463 -1.32683,-2.666927 -1.32683,-3.967221 0,-1.472781 0.31844,-2.945562 1.36663,-3.993758 0.10615,-0.106146 0.10615,-0.119414 0.10615,-0.145951 0,-0.06634 -0.0265,-0.09288 -0.0796,-0.09288 -0.0929,0 -0.84917,0.583805 -1.35337,1.658537 -0.42458,0.928781 -0.53073,1.87083 -0.53073,2.57405 0,0.663415 0.0929,1.685074 0.55727,2.65366 0.51746,1.034927 1.23395,1.592196 1.32683,1.592196 0.0531,0 0.0796,-0.02654 0.0796,-0.09288 z m 0,0"
         id="id-a2fc1a15-8949-4e92-ad71-ccad5ef35cd4"
         style="fill:#000000;fill-opacity:1;stroke-width:0.849171" />
      <path
         d="m 131.19693,43.624922 c -0.0265,0.106146 -0.0265,0.119414 -0.0265,0.145951 0,0.119415 0.0929,0.225561 0.23883,0.225561 0.17248,0 0.27863,-0.159219 0.2919,-0.185756 0.0531,-0.06634 0.31844,-1.207415 0.544,-2.122928 0.17249,0.344976 0.43785,0.570537 0.8359,0.570537 0.99512,0 2.08313,-1.194147 2.08313,-2.454635 0,-0.902244 -0.55727,-1.379903 -1.16761,-1.379903 -0.82264,0 -1.71162,0.849171 -1.96371,1.884098 z m 1.8841,-1.552391 c -0.59707,0 -0.72975,-0.676683 -0.72975,-0.756293 0,-0.02654 0.0398,-0.199025 0.0663,-0.305171 0.23883,-0.955317 0.31844,-1.260488 0.50419,-1.592196 0.37152,-0.62361 0.7961,-0.809366 1.0482,-0.809366 0.31844,0 0.5838,0.252098 0.5838,0.835903 0,0.46439 -0.23883,1.406439 -0.46439,1.817757 -0.27863,0.544 -0.68995,0.809366 -1.00839,0.809366 z m 0,0"
         id="id-075dbfaa-51b8-479f-a97d-949ab8eea7b5"
         style="fill:#000000;fill-opacity:1;stroke-width:0.849171" />
      <path
         d="m 137.73375,40.042481 c 0,-0.650146 -0.0929,-1.671805 -0.55727,-2.640391 -0.5042,-1.034927 -1.23395,-1.592196 -1.31356,-1.592196 -0.0531,0 -0.0929,0.03981 -0.0929,0.09288 0,0.02654 0,0.03981 0.15922,0.199025 0.8359,0.835902 1.31356,2.176001 1.31356,3.940684 0,1.459513 -0.30517,2.945562 -1.35337,4.007026 -0.11941,0.106147 -0.11941,0.119415 -0.11941,0.145952 0,0.05307 0.0398,0.09288 0.0929,0.09288 0.0796,0 0.84917,-0.583805 1.34009,-1.658538 0.43786,-0.92878 0.53074,-1.87083 0.53074,-2.587318 z m 0,0"
         id="id-c98a47ab-9d87-4554-a367-b7e1f4950a76"
         style="fill:#000000;fill-opacity:1;stroke-width:0.849171" />
    </g>
    <g
       id="g3"
       transform="translate(-0.33236674,0.36053342)"
       style="fill:#009bb1;fill-opacity:0.497449">
      <circle
         style="fill:#009bb1;fill-opacity:0.497449;stroke:#000000;stroke-width:0.3;stroke-miterlimit:6"
         id="path1"
         cx="85.455223"
         cy="41.164135"
         r="9.3688831" />
      <circle
         style="fill:#009bb1;fill-opacity:0.497449;stroke:#000000;stroke-width:0.3;stroke-miterlimit:6"
         id="path1-3"
         r="0.34512419"
         cy="41.164135"
         cx="85.455223" />
    </g>
  </g>
</svg>
