<?xml version="1.0" encoding="UTF-8" standalone="no"?>
<!-- Created with Inkscape (http://www.inkscape.org/) -->

<svg
   width="51.678352mm"
   height="40.61047mm"
   viewBox="-38 -2 86.771798 68.188"
   version="1.1"
   id="svg1"
   inkscape:version="1.3.2 (091e20e, 2023-11-25, custom)"
   sodipodi:docname="normal.svg"
   inkscape:export-filename="normal.png"
   inkscape:export-xdpi="300"
   inkscape:export-ydpi="300"
   xmlns:inkscape="http://www.inkscape.org/namespaces/inkscape"
   xmlns:sodipodi="http://sodipodi.sourceforge.net/DTD/sodipodi-0.dtd"
   xmlns="http://www.w3.org/2000/svg"
   xmlns:svg="http://www.w3.org/2000/svg"
   xmlns:ns2="http://www.iki.fi/pav/software/textext/">
  <sodipodi:namedview
     id="namedview1"
     pagecolor="#ffffff"
     bordercolor="#000000"
     borderopacity="0.25"
     inkscape:showpageshadow="2"
     inkscape:pageopacity="0.0"
     inkscape:pagecheckerboard="0"
     inkscape:deskcolor="#d1d1d1"
     inkscape:document-units="mm"
     inkscape:zoom="7.1246189"
     inkscape:cx="125.41022"
     inkscape:cy="72.916181"
     inkscape:window-width="2560"
     inkscape:window-height="1361"
     inkscape:window-x="-9"
     inkscape:window-y="-9"
     inkscape:window-maximized="1"
     inkscape:current-layer="layer1"
     showgrid="false" />
  <defs
     id="defs1">
    <marker
       style="overflow:visible"
       id="ConcaveTriangle"
       refX="0"
       refY="0"
       orient="auto-start-reverse"
       inkscape:stockid="Concave triangle arrow"
       markerWidth="1"
       markerHeight="1"
       viewBox="0 0 1 1"
       inkscape:isstock="true"
       inkscape:collect="always"
       preserveAspectRatio="xMidYMid">
      <path
         transform="scale(0.7)"
         d="M -2,-4 9,0 -2,4 c 2,-2.33 2,-5.66 0,-8 z"
         style="fill:context-stroke;fill-rule:evenodd;stroke:none"
         id="path7" />
    </marker>
    <defs
       id="id-dd5dad59-6d7f-46bb-9144-2582c856f2c3">
      <g
         id="id-d64f639a-3c46-4499-bf78-bc5208bf3b2e">
        <g
           id="id-0dc558ef-af83-47c3-b2b5-e0b0cda9d096">
          <path
             d="M 1.265625,-0.953125 C 1.4375,-0.3125 1.90625,0.109375 2.546875,0.109375 3.734375,0.109375 5,-1.3125 5,-2.78125 c 0,-1.0625 -0.65625,-1.625 -1.375,-1.625 -0.796875,0 -1.796875,0.703125 -2.25,1.96875 -0.046875,0.109375 -0.640625,2.3125 -0.640625,3.203125 0,0.515625 0.1875,0.984375 1.40625,0.984375 0.359375,0 0.5625,-0.046875 0.953125,-0.046875 0.1875,0 0.203125,0 0.265625,0.015625 0.15625,0 0.1875,0.015625 0.203125,0.09375 0,0.0625 0,0.125 0.109375,0.125 0.09375,0 0.15625,-0.046875 0.15625,-0.28125 0,-0.484375 -0.4375,-0.484375 -1.4375,-0.484375 -0.890625,0 -1.359375,0 -1.359375,-0.671875 0,-0.078125 0,-0.453125 0.234375,-1.453125 z m 1.28125,0.84375 c -0.328125,0 -0.734375,-0.234375 -0.734375,-1.046875 0,-0.625 0.296875,-1.625 0.546875,-2.078125 C 2.765625,-3.9375 3.265625,-4.1875 3.59375,-4.1875 c 0.375,0 0.6875,0.296875 0.6875,0.984375 0,0.546875 -0.28125,1.65625 -0.546875,2.140625 -0.328125,0.640625 -0.8125,0.953125 -1.1875,0.953125 z m 0,0"
             id="id-aa063c04-3c2b-43b1-8296-50bfb4a47e90" />
        </g>
        <g
           id="id-b90bcaaa-9743-4d39-a3b5-36dadb13456e">
          <path
             d="m 5.15625,-3.71875 c 0.140625,0 0.5,0 0.5,-0.34375 0,-0.234375 -0.21875,-0.234375 -0.390625,-0.234375 h -2.28125 c -1.5,0 -2.609375,1.640625 -2.609375,2.828125 0,0.875 0.59375,1.578125 1.5,1.578125 1.171875,0 2.5,-1.203125 2.5,-2.734375 0,-0.171875 0,-0.65625 -0.3125,-1.09375 z M 1.890625,-0.109375 C 1.390625,-0.109375 1,-0.46875 1,-1.1875 c 0,-0.296875 0.109375,-1.109375 0.46875,-1.703125 0.421875,-0.6875 1.015625,-0.828125 1.359375,-0.828125 0.828125,0 0.90625,0.65625 0.90625,0.96875 0,0.46875 -0.203125,1.28125 -0.53125,1.796875 -0.390625,0.578125 -0.9375,0.84375 -1.3125,0.84375 z m 0,0"
             id="id-5b31fb62-e943-4910-a127-dd310fce7814" />
        </g>
      </g>
    </defs>
    <defs
       id="id-5e5a07ab-80aa-4606-9b97-07164ae12e14">
      <g
         id="id-3b9a69af-bc2f-4d75-ba92-bb152d4118a3">
        <g
           id="id-9f9df12d-07ab-4419-8722-7c4bce190d25">
          <path
             d="M 3.328125,-3.015625 C 3.390625,-3.265625 3.625,-4.1875 4.3125,-4.1875 c 0.046875,0 0.296875,0 0.5,0.125 C 4.53125,-4 4.34375,-3.765625 4.34375,-3.515625 c 0,0.15625 0.109375,0.34375 0.375,0.34375 0.21875,0 0.53125,-0.171875 0.53125,-0.578125 0,-0.515625 -0.578125,-0.65625 -0.921875,-0.65625 -0.578125,0 -0.921875,0.53125 -1.046875,0.75 -0.25,-0.65625 -0.78125,-0.75 -1.078125,-0.75 -1.03125,0 -1.609375,1.28125 -1.609375,1.53125 0,0.109375 0.109375,0.109375 0.125,0.109375 0.078125,0 0.109375,-0.03125 0.125,-0.109375 0.34375,-1.0625 1,-1.3125 1.34375,-1.3125 0.1875,0 0.53125,0.09375 0.53125,0.671875 0,0.3125 -0.171875,0.96875 -0.53125,2.375 -0.15625,0.609375 -0.515625,1.03125 -0.953125,1.03125 -0.0625,0 -0.28125,0 -0.5,-0.125 0.25,-0.0625 0.46875,-0.265625 0.46875,-0.546875 0,-0.265625 -0.21875,-0.34375 -0.359375,-0.34375 -0.3125,0 -0.546875,0.25 -0.546875,0.578125 0,0.453125 0.484375,0.65625 0.921875,0.65625 0.671875,0 1.03125,-0.703125 1.046875,-0.75 0.125,0.359375 0.484375,0.75 1.078125,0.75 1.03125,0 1.59375,-1.28125 1.59375,-1.53125 0,-0.109375 -0.078125,-0.109375 -0.109375,-0.109375 -0.09375,0 -0.109375,0.046875 -0.140625,0.109375 -0.328125,1.078125 -1,1.3125 -1.3125,1.3125 -0.390625,0 -0.546875,-0.3125 -0.546875,-0.65625 0,-0.21875 0.046875,-0.4375 0.15625,-0.875 z m 0,0"
             id="id-37df1b47-7a37-43c9-a61b-d4d2808a8b84" />
        </g>
        <g
           id="id-3a3377bf-8a22-4249-b525-e345b2b80e4e">
          <path
             d="m 2.859375,-6.8125 c 0,0 0,-0.109375 -0.125,-0.109375 -0.234375,0 -0.953125,0.078125 -1.21875,0.109375 -0.078125,0 -0.1875,0.015625 -0.1875,0.1875 0,0.125 0.09375,0.125 0.234375,0.125 0.484375,0 0.5,0.0625 0.5,0.171875 L 2.03125,-6.125 0.59375,-0.390625 c -0.046875,0.140625 -0.046875,0.15625 -0.046875,0.21875 0,0.234375 0.203125,0.28125 0.296875,0.28125 0.15625,0 0.3125,-0.125 0.359375,-0.265625 l 0.1875,-0.75 0.21875,-0.890625 C 1.671875,-2.03125 1.734375,-2.25 1.78125,-2.46875 1.796875,-2.53125 1.890625,-2.859375 1.890625,-2.921875 1.921875,-3.015625 2.234375,-3.5625 2.578125,-3.84375 2.796875,-4 3.09375,-4.1875 3.53125,-4.1875 c 0.421875,0 0.53125,0.34375 0.53125,0.703125 0,0.53125 -0.375,1.625 -0.609375,2.234375 C 3.375,-1.03125 3.3125,-0.90625 3.3125,-0.703125 c 0,0.46875 0.359375,0.8125 0.828125,0.8125 0.9375,0 1.296875,-1.453125 1.296875,-1.53125 0,-0.109375 -0.078125,-0.109375 -0.109375,-0.109375 -0.109375,0 -0.109375,0.03125 -0.15625,0.1875 -0.140625,0.53125 -0.46875,1.234375 -1.015625,1.234375 -0.171875,0 -0.234375,-0.09375 -0.234375,-0.328125 0,-0.25 0.078125,-0.484375 0.171875,-0.703125 0.15625,-0.4375 0.609375,-1.625 0.609375,-2.203125 0,-0.640625 -0.390625,-1.0625 -1.140625,-1.0625 -0.625,0 -1.109375,0.3125 -1.484375,0.765625 z m 0,0"
             id="id-d43626a2-fc6a-4755-b209-759ed1dabb77" />
        </g>
        <g
           id="id-def248fd-f0bb-462c-9fa2-e6143c1e78a0">
          <path
             d="m 2.03125,-0.015625 c 0,-0.65625 -0.25,-1.046875 -0.640625,-1.046875 -0.328125,0 -0.53125,0.25 -0.53125,0.53125 C 0.859375,-0.265625 1.0625,0 1.390625,0 1.5,0 1.640625,-0.046875 1.734375,-0.125 1.765625,-0.15625 1.78125,-0.15625 1.78125,-0.15625 c 0.015625,0 0.015625,0 0.015625,0.140625 0,0.75 -0.34375,1.34375 -0.671875,1.671875 -0.109375,0.109375 -0.109375,0.125 -0.109375,0.15625 0,0.078125 0.046875,0.109375 0.09375,0.109375 0.109375,0 0.921875,-0.765625 0.921875,-1.9375 z m 0,0"
             id="id-b420c887-63b3-43ba-85a5-1bac3b626f47" />
        </g>
        <g
           id="id-a12d9eed-6194-4df3-af4c-36882d592ee5">
          <path
             d="m 4.84375,-3.796875 c 0.046875,-0.140625 0.046875,-0.15625 0.046875,-0.234375 0,-0.171875 -0.140625,-0.265625 -0.296875,-0.265625 -0.09375,0 -0.25,0.0625 -0.34375,0.203125 -0.015625,0.0625 -0.109375,0.359375 -0.140625,0.546875 -0.078125,0.25 -0.140625,0.53125 -0.203125,0.796875 l -0.453125,1.796875 c -0.03125,0.140625 -0.46875,0.84375 -1.125,0.84375 -0.5,0 -0.609375,-0.4375 -0.609375,-0.8125 C 1.71875,-1.375 1.890625,-2 2.21875,-2.875 2.375,-3.28125 2.421875,-3.390625 2.421875,-3.59375 c 0,-0.4375 -0.3125,-0.8125 -0.8125,-0.8125 -0.953125,0 -1.3125,1.453125 -1.3125,1.53125 0,0.109375 0.09375,0.109375 0.109375,0.109375 0.109375,0 0.109375,-0.03125 0.15625,-0.1875 0.28125,-0.9375 0.671875,-1.234375 1.015625,-1.234375 0.078125,0 0.25,0 0.25,0.3125 0,0.25 -0.109375,0.515625 -0.171875,0.703125 -0.40625,1.0625 -0.578125,1.625 -0.578125,2.09375 0,0.890625 0.625,1.1875 1.21875,1.1875 0.390625,0 0.71875,-0.171875 1,-0.453125 -0.125,0.515625 -0.25,1.015625 -0.640625,1.546875 -0.265625,0.328125 -0.640625,0.625 -1.09375,0.625 -0.140625,0 -0.59375,-0.03125 -0.765625,-0.421875 0.15625,0 0.296875,0 0.421875,-0.125 C 1.328125,1.203125 1.421875,1.0625 1.421875,0.875 1.421875,0.5625 1.15625,0.53125 1.0625,0.53125 0.828125,0.53125 0.5,0.6875 0.5,1.171875 c 0,0.5 0.4375,0.875 1.0625,0.875 1.015625,0 2.046875,-0.90625 2.328125,-2.03125 z m 0,0"
             id="id-e61f1ef8-24bf-4d2a-8950-deba7094ce31" />
        </g>
        <g
           id="id-82866322-6d82-42f5-a56f-b820d45d59a2">
          <path
             d="m 3.296875,2.390625 c 0,-0.03125 0,-0.046875 -0.171875,-0.21875 C 1.890625,0.921875 1.5625,-0.96875 1.5625,-2.5 c 0,-1.734375 0.375,-3.46875 1.609375,-4.703125 0.125,-0.125 0.125,-0.140625 0.125,-0.171875 0,-0.078125 -0.03125,-0.109375 -0.09375,-0.109375 -0.109375,0 -1,0.6875 -1.59375,1.953125 -0.5,1.09375 -0.625,2.203125 -0.625,3.03125 0,0.78125 0.109375,1.984375 0.65625,3.125 C 2.25,1.84375 3.09375,2.5 3.203125,2.5 c 0.0625,0 0.09375,-0.03125 0.09375,-0.109375 z m 0,0"
             id="id-3ae0b45f-4054-472b-b363-dab05ed0a924" />
        </g>
        <g
           id="id-7b1c9174-d881-4521-8027-4bc2bab15c67">
          <path
             d="m 2.875,-2.5 c 0,-0.765625 -0.109375,-1.96875 -0.65625,-3.109375 -0.59375,-1.21875 -1.453125,-1.875 -1.546875,-1.875 -0.0625,0 -0.109375,0.046875 -0.109375,0.109375 0,0.03125 0,0.046875 0.1875,0.234375 0.984375,0.984375 1.546875,2.5625 1.546875,4.640625 0,1.71875 -0.359375,3.46875 -1.59375,4.71875 C 0.5625,2.34375 0.5625,2.359375 0.5625,2.390625 0.5625,2.453125 0.609375,2.5 0.671875,2.5 0.765625,2.5 1.671875,1.8125 2.25,0.546875 2.765625,-0.546875 2.875,-1.65625 2.875,-2.5 Z m 0,0"
             id="id-9d54325a-9f78-4c7e-ab7b-e77cd4303027" />
        </g>
      </g>
    </defs>
  </defs>
  <g
     inkscape:label="Layer 1"
     inkscape:groupmode="layer"
     id="layer1"
     transform="translate(-58.71499,-53.616172)">
    <circle
       style="fill:#b6d4f8;fill-opacity:1;stroke:#000000;stroke-width:0.160574;stroke-miterlimit:6;stroke-dasharray:none;stroke-opacity:1"
       id="path2"
       cx="80.678749"
       cy="75.139664"
       r="22.443205" />
    <circle
       style="fill:#b6d4f8;fill-opacity:1;stroke:#1900fc;stroke-width:0.370873;stroke-miterlimit:6;stroke-dasharray:none;stroke-opacity:1"
       id="path3"
       cx="80.710617"
       cy="75.091866"
       r="0.40949446" />
    <g
       fill="#000000"
       fill-opacity="1"
       id="id-f4bb8285-7947-4cf0-be01-eb3a015a02c2"
       transform="matrix(0.66441029,0,0,0.66441029,-19.959738,29.051426)">
      <g
         transform="translate(148.712,134.765)"
         id="g1405">
        <path
           d="M 3.328125,-3.015625 C 3.390625,-3.265625 3.625,-4.1875 4.3125,-4.1875 c 0.046875,0 0.296875,0 0.5,0.125 C 4.53125,-4 4.34375,-3.765625 4.34375,-3.515625 c 0,0.15625 0.109375,0.34375 0.375,0.34375 0.21875,0 0.53125,-0.171875 0.53125,-0.578125 0,-0.515625 -0.578125,-0.65625 -0.921875,-0.65625 -0.578125,0 -0.921875,0.53125 -1.046875,0.75 -0.25,-0.65625 -0.78125,-0.75 -1.078125,-0.75 -1.03125,0 -1.609375,1.28125 -1.609375,1.53125 0,0.109375 0.109375,0.109375 0.125,0.109375 0.078125,0 0.109375,-0.03125 0.125,-0.109375 0.34375,-1.0625 1,-1.3125 1.34375,-1.3125 0.1875,0 0.53125,0.09375 0.53125,0.671875 0,0.3125 -0.171875,0.96875 -0.53125,2.375 -0.15625,0.609375 -0.515625,1.03125 -0.953125,1.03125 -0.0625,0 -0.28125,0 -0.5,-0.125 0.25,-0.0625 0.46875,-0.265625 0.46875,-0.546875 0,-0.265625 -0.21875,-0.34375 -0.359375,-0.34375 -0.3125,0 -0.546875,0.25 -0.546875,0.578125 0,0.453125 0.484375,0.65625 0.921875,0.65625 0.671875,0 1.03125,-0.703125 1.046875,-0.75 0.125,0.359375 0.484375,0.75 1.078125,0.75 1.03125,0 1.59375,-1.28125 1.59375,-1.53125 0,-0.109375 -0.078125,-0.109375 -0.109375,-0.109375 -0.09375,0 -0.109375,0.046875 -0.140625,0.109375 -0.328125,1.078125 -1,1.3125 -1.3125,1.3125 -0.390625,0 -0.546875,-0.3125 -0.546875,-0.65625 0,-0.21875 0.046875,-0.4375 0.15625,-0.875 z m 0,0"
           id="id-8469d427-84d9-4dbc-8d14-4968bd8e4bcc" />
      </g>
    </g>
    <g
       id="g11"
       transform="matrix(0.89212995,0,0,0.89212995,-2.7169343,-40.294362)">
      <g
         fill="#000000"
         fill-opacity="1"
         id="id-3deb614f-cf77-4dd2-b219-5e9c15265934"
         transform="matrix(0.66441029,0,0,0.66441029,-77.175862,41.628364)">
        <g
           transform="translate(157.723,134.765)"
           id="g6184">
          <path
             d="m 2.859375,-6.8125 c 0,0 0,-0.109375 -0.125,-0.109375 -0.234375,0 -0.953125,0.078125 -1.21875,0.109375 -0.078125,0 -0.1875,0.015625 -0.1875,0.1875 0,0.125 0.09375,0.125 0.234375,0.125 0.484375,0 0.5,0.0625 0.5,0.171875 L 2.03125,-6.125 0.59375,-0.390625 c -0.046875,0.140625 -0.046875,0.15625 -0.046875,0.21875 0,0.234375 0.203125,0.28125 0.296875,0.28125 0.15625,0 0.3125,-0.125 0.359375,-0.265625 l 0.1875,-0.75 0.21875,-0.890625 C 1.671875,-2.03125 1.734375,-2.25 1.78125,-2.46875 1.796875,-2.53125 1.890625,-2.859375 1.890625,-2.921875 1.921875,-3.015625 2.234375,-3.5625 2.578125,-3.84375 2.796875,-4 3.09375,-4.1875 3.53125,-4.1875 c 0.421875,0 0.53125,0.34375 0.53125,0.703125 0,0.53125 -0.375,1.625 -0.609375,2.234375 C 3.375,-1.03125 3.3125,-0.90625 3.3125,-0.703125 c 0,0.46875 0.359375,0.8125 0.828125,0.8125 0.9375,0 1.296875,-1.453125 1.296875,-1.53125 0,-0.109375 -0.078125,-0.109375 -0.109375,-0.109375 -0.109375,0 -0.109375,0.03125 -0.15625,0.1875 -0.140625,0.53125 -0.46875,1.234375 -1.015625,1.234375 -0.171875,0 -0.234375,-0.09375 -0.234375,-0.328125 0,-0.25 0.078125,-0.484375 0.171875,-0.703125 0.15625,-0.4375 0.609375,-1.625 0.609375,-2.203125 0,-0.640625 -0.390625,-1.0625 -1.140625,-1.0625 -0.625,0 -1.109375,0.3125 -1.484375,0.765625 z m 0,0"
             id="id-8e095956-451c-4135-9984-010744a8ee09" />
        </g>
      </g>
      <g
         fill="#000000"
         fill-opacity="1"
         id="id-46b5dcce-1b35-4b73-bb96-de190ead63d6"
         transform="matrix(0.66441029,0,0,0.66441029,-77.175862,41.628364)">
        <g
           transform="translate(163.467,134.765)"
           id="g6280">
          <path
             d="m 3.296875,2.390625 c 0,-0.03125 0,-0.046875 -0.171875,-0.21875 C 1.890625,0.921875 1.5625,-0.96875 1.5625,-2.5 c 0,-1.734375 0.375,-3.46875 1.609375,-4.703125 0.125,-0.125 0.125,-0.140625 0.125,-0.171875 0,-0.078125 -0.03125,-0.109375 -0.09375,-0.109375 -0.109375,0 -1,0.6875 -1.59375,1.953125 -0.5,1.09375 -0.625,2.203125 -0.625,3.03125 0,0.78125 0.109375,1.984375 0.65625,3.125 C 2.25,1.84375 3.09375,2.5 3.203125,2.5 c 0.0625,0 0.09375,-0.03125 0.09375,-0.109375 z m 0,0"
             id="id-824d7315-978a-454b-9255-08768c57a82b" />
        </g>
      </g>
      <g
         fill="#000000"
         fill-opacity="1"
         id="id-33041153-a881-4c35-891b-e2cc061b2708"
         transform="matrix(0.66441029,0,0,0.66441029,-77.175862,41.628364)">
        <g
           transform="translate(167.342,134.765)"
           id="g9948">
          <path
             d="M 3.328125,-3.015625 C 3.390625,-3.265625 3.625,-4.1875 4.3125,-4.1875 c 0.046875,0 0.296875,0 0.5,0.125 C 4.53125,-4 4.34375,-3.765625 4.34375,-3.515625 c 0,0.15625 0.109375,0.34375 0.375,0.34375 0.21875,0 0.53125,-0.171875 0.53125,-0.578125 0,-0.515625 -0.578125,-0.65625 -0.921875,-0.65625 -0.578125,0 -0.921875,0.53125 -1.046875,0.75 -0.25,-0.65625 -0.78125,-0.75 -1.078125,-0.75 -1.03125,0 -1.609375,1.28125 -1.609375,1.53125 0,0.109375 0.109375,0.109375 0.125,0.109375 0.078125,0 0.109375,-0.03125 0.125,-0.109375 0.34375,-1.0625 1,-1.3125 1.34375,-1.3125 0.1875,0 0.53125,0.09375 0.53125,0.671875 0,0.3125 -0.171875,0.96875 -0.53125,2.375 -0.15625,0.609375 -0.515625,1.03125 -0.953125,1.03125 -0.0625,0 -0.28125,0 -0.5,-0.125 0.25,-0.0625 0.46875,-0.265625 0.46875,-0.546875 0,-0.265625 -0.21875,-0.34375 -0.359375,-0.34375 -0.3125,0 -0.546875,0.25 -0.546875,0.578125 0,0.453125 0.484375,0.65625 0.921875,0.65625 0.671875,0 1.03125,-0.703125 1.046875,-0.75 0.125,0.359375 0.484375,0.75 1.078125,0.75 1.03125,0 1.59375,-1.28125 1.59375,-1.53125 0,-0.109375 -0.078125,-0.109375 -0.109375,-0.109375 -0.09375,0 -0.109375,0.046875 -0.140625,0.109375 -0.328125,1.078125 -1,1.3125 -1.3125,1.3125 -0.390625,0 -0.546875,-0.3125 -0.546875,-0.65625 0,-0.21875 0.046875,-0.4375 0.15625,-0.875 z m 0,0"
             id="id-aaa701fd-e144-44a4-a6f7-c9bb4485b63b" />
        </g>
        <g
           transform="translate(173.036,134.765)"
           id="g8351">
          <path
             d="m 2.03125,-0.015625 c 0,-0.65625 -0.25,-1.046875 -0.640625,-1.046875 -0.328125,0 -0.53125,0.25 -0.53125,0.53125 C 0.859375,-0.265625 1.0625,0 1.390625,0 1.5,0 1.640625,-0.046875 1.734375,-0.125 1.765625,-0.15625 1.78125,-0.15625 1.78125,-0.15625 c 0.015625,0 0.015625,0 0.015625,0.140625 0,0.75 -0.34375,1.34375 -0.671875,1.671875 -0.109375,0.109375 -0.109375,0.125 -0.109375,0.15625 0,0.078125 0.046875,0.109375 0.09375,0.109375 0.109375,0 0.921875,-0.765625 0.921875,-1.9375 z m 0,0"
             id="id-7118710a-58e5-46a5-8af0-90c16a5e29d1" />
        </g>
      </g>
      <g
         fill="#000000"
         fill-opacity="1"
         id="id-81a3aab3-536a-48d7-bcdc-f77d5d3e35df"
         transform="matrix(0.66441029,0,0,0.66441029,-77.175862,41.628364)">
        <g
           transform="translate(177.467,134.765)"
           id="g6157">
          <path
             d="m 4.84375,-3.796875 c 0.046875,-0.140625 0.046875,-0.15625 0.046875,-0.234375 0,-0.171875 -0.140625,-0.265625 -0.296875,-0.265625 -0.09375,0 -0.25,0.0625 -0.34375,0.203125 -0.015625,0.0625 -0.109375,0.359375 -0.140625,0.546875 -0.078125,0.25 -0.140625,0.53125 -0.203125,0.796875 l -0.453125,1.796875 c -0.03125,0.140625 -0.46875,0.84375 -1.125,0.84375 -0.5,0 -0.609375,-0.4375 -0.609375,-0.8125 C 1.71875,-1.375 1.890625,-2 2.21875,-2.875 2.375,-3.28125 2.421875,-3.390625 2.421875,-3.59375 c 0,-0.4375 -0.3125,-0.8125 -0.8125,-0.8125 -0.953125,0 -1.3125,1.453125 -1.3125,1.53125 0,0.109375 0.09375,0.109375 0.109375,0.109375 0.109375,0 0.109375,-0.03125 0.15625,-0.1875 0.28125,-0.9375 0.671875,-1.234375 1.015625,-1.234375 0.078125,0 0.25,0 0.25,0.3125 0,0.25 -0.109375,0.515625 -0.171875,0.703125 -0.40625,1.0625 -0.578125,1.625 -0.578125,2.09375 0,0.890625 0.625,1.1875 1.21875,1.1875 0.390625,0 0.71875,-0.171875 1,-0.453125 -0.125,0.515625 -0.25,1.015625 -0.640625,1.546875 -0.265625,0.328125 -0.640625,0.625 -1.09375,0.625 -0.140625,0 -0.59375,-0.03125 -0.765625,-0.421875 0.15625,0 0.296875,0 0.421875,-0.125 C 1.328125,1.203125 1.421875,1.0625 1.421875,0.875 1.421875,0.5625 1.15625,0.53125 1.0625,0.53125 0.828125,0.53125 0.5,0.6875 0.5,1.171875 c 0,0.5 0.4375,0.875 1.0625,0.875 1.015625,0 2.046875,-0.90625 2.328125,-2.03125 z m 0,0"
             id="id-33bf7c63-6aeb-46e7-a224-dfc8638c1e35" />
        </g>
      </g>
      <g
         fill="#000000"
         fill-opacity="1"
         id="id-bed18b78-6f3e-4453-a0fe-d3cde828689c"
         transform="matrix(0.66441029,0,0,0.66441029,-77.175862,41.628364)">
        <g
           transform="translate(182.705,134.765)"
           id="g6217">
          <path
             d="m 2.875,-2.5 c 0,-0.765625 -0.109375,-1.96875 -0.65625,-3.109375 -0.59375,-1.21875 -1.453125,-1.875 -1.546875,-1.875 -0.0625,0 -0.109375,0.046875 -0.109375,0.109375 0,0.03125 0,0.046875 0.1875,0.234375 0.984375,0.984375 1.546875,2.5625 1.546875,4.640625 0,1.71875 -0.359375,3.46875 -1.59375,4.71875 C 0.5625,2.34375 0.5625,2.359375 0.5625,2.390625 0.5625,2.453125 0.609375,2.5 0.671875,2.5 0.765625,2.5 1.671875,1.8125 2.25,0.546875 2.765625,-0.546875 2.875,-1.65625 2.875,-2.5 Z m 0,0"
             id="id-9384188c-fe89-4e42-a376-1781ede02327" />
        </g>
      </g>
    </g>
    <path
       style="fill:#b6d4f8;fill-opacity:1;stroke:#009dc7;stroke-width:0.499999;stroke-miterlimit:6;stroke-dasharray:none;stroke-opacity:1;marker-end:url(#ConcaveTriangle)"
       d="M 68.458998,94.290234 78.656423,78.293026"
       id="path4"
       sodipodi:nodetypes="cc" />
    <g
       fill="#000000"
       fill-opacity="1"
       id="id-b12b7e4d-6200-4a3b-ac3f-80b2a27bbbae"
       transform="matrix(1.1143553,0,0,1.1143553,-118.35851,-64.653493)">
      <g
         transform="translate(148.712,134.765)"
         id="g3960">
        <path
           d="M 1.265625,-0.953125 C 1.4375,-0.3125 1.90625,0.109375 2.546875,0.109375 3.734375,0.109375 5,-1.3125 5,-2.78125 c 0,-1.0625 -0.65625,-1.625 -1.375,-1.625 -0.796875,0 -1.796875,0.703125 -2.25,1.96875 -0.046875,0.109375 -0.640625,2.3125 -0.640625,3.203125 0,0.515625 0.1875,0.984375 1.40625,0.984375 0.359375,0 0.5625,-0.046875 0.953125,-0.046875 0.1875,0 0.203125,0 0.265625,0.015625 0.15625,0 0.1875,0.015625 0.203125,0.09375 0,0.0625 0,0.125 0.109375,0.125 0.09375,0 0.15625,-0.046875 0.15625,-0.28125 0,-0.484375 -0.4375,-0.484375 -1.4375,-0.484375 -0.890625,0 -1.359375,0 -1.359375,-0.671875 0,-0.078125 0,-0.453125 0.234375,-1.453125 z m 1.28125,0.84375 c -0.328125,0 -0.734375,-0.234375 -0.734375,-1.046875 0,-0.625 0.296875,-1.625 0.546875,-2.078125 C 2.765625,-3.9375 3.265625,-4.1875 3.59375,-4.1875 c 0.375,0 0.6875,0.296875 0.6875,0.984375 0,0.546875 -0.28125,1.65625 -0.546875,2.140625 -0.328125,0.640625 -0.8125,0.953125 -1.1875,0.953125 z m 0,0"
           id="id-956b13b9-a6df-45d2-9a88-edfbee99a04c" />
      </g>
    </g>
    <g
       fill="#000000"
       fill-opacity="1"
       id="id-2668770b-ffb8-4ff7-b2bf-56f8cdb9ee15"
       transform="matrix(1.1143553,0,0,1.1143553,-127.78217,-85.487686)">
      <g
         transform="translate(157.18,134.765)"
         id="g6103">
        <path
           d="m 5.15625,-3.71875 c 0.140625,0 0.5,0 0.5,-0.34375 0,-0.234375 -0.21875,-0.234375 -0.390625,-0.234375 h -2.28125 c -1.5,0 -2.609375,1.640625 -2.609375,2.828125 0,0.875 0.59375,1.578125 1.5,1.578125 1.171875,0 2.5,-1.203125 2.5,-2.734375 0,-0.171875 0,-0.65625 -0.3125,-1.09375 z M 1.890625,-0.109375 C 1.390625,-0.109375 1,-0.46875 1,-1.1875 c 0,-0.296875 0.109375,-1.109375 0.46875,-1.703125 0.421875,-0.6875 1.015625,-0.828125 1.359375,-0.828125 0.828125,0 0.90625,0.65625 0.90625,0.96875 0,0.46875 -0.203125,1.28125 -0.53125,1.796875 -0.390625,0.578125 -0.9375,0.84375 -1.3125,0.84375 z m 0,0"
           id="id-c3baf447-e04c-4ad7-9f35-33027d873180" />
      </g>
    </g>
    <g
       transform="matrix(1.1083332,0,0,1.1083332,62.523488,79.40872)"
       ns2:version="1.10.2"
       ns2:texconverter="pdflatex"
       ns2:pdfconverter="inkscape"
       ns2:text="$r n$"
       ns2:preamble="C:\Users\surov\AppData\Roaming\inkscape\extensions\textext\default_packages.tex"
       ns2:scale="1.0"
       ns2:alignment="middle center"
       ns2:stroke-to-path="0"
       ns2:inkscapeversion="1.3.2"
       id="g9671"
       ns2:jacobian_sqrt="0.352778">
      <defs
         id="id-b87254f4-1d2b-412b-8676-1cd541e6fde2">
        <g
           id="id-6c087bee-a21c-43b0-80b6-0288cb76f1ad">
          <g
             id="id-7709df78-4730-454f-9d34-430c9f3fd2d8">
            <path
               d="m 0.875,-0.59375 c -0.03125,0.15625 -0.09375,0.390625 -0.09375,0.4375 0,0.171875 0.140625,0.265625 0.296875,0.265625 0.125,0 0.296875,-0.078125 0.375,-0.28125 C 1.46875,-0.203125 1.796875,-1.5625 1.84375,-1.75 c 0.078125,-0.328125 0.265625,-1.015625 0.3125,-1.296875 0.046875,-0.125 0.328125,-0.59375 0.5625,-0.8125 0.078125,-0.0625 0.375,-0.328125 0.796875,-0.328125 0.265625,0 0.40625,0.125 0.421875,0.125 -0.296875,0.046875 -0.515625,0.28125 -0.515625,0.546875 0,0.15625 0.109375,0.34375 0.375,0.34375 0.265625,0 0.546875,-0.234375 0.546875,-0.59375 0,-0.34375 -0.3125,-0.640625 -0.828125,-0.640625 C 2.875,-4.40625 2.4375,-3.921875 2.25,-3.640625 2.15625,-4.09375 1.796875,-4.40625 1.328125,-4.40625 0.875,-4.40625 0.6875,-4.015625 0.59375,-3.84375 0.421875,-3.5 0.296875,-2.90625 0.296875,-2.875 c 0,0.109375 0.09375,0.109375 0.109375,0.109375 0.109375,0 0.109375,-0.015625 0.171875,-0.234375 0.171875,-0.703125 0.375,-1.1875 0.734375,-1.1875 0.15625,0 0.296875,0.078125 0.296875,0.453125 0,0.21875 -0.03125,0.328125 -0.15625,0.84375 z m 0,0"
               id="id-547a6d6d-a800-499f-83f2-9217210a12d9" />
          </g>
          <g
             id="id-c17a92ff-bf73-4fe8-8aa8-8c364b0b13f3">
            <path
               d="m 0.875,-0.59375 c -0.03125,0.15625 -0.09375,0.390625 -0.09375,0.4375 0,0.171875 0.140625,0.265625 0.296875,0.265625 0.125,0 0.296875,-0.078125 0.375,-0.28125 0,-0.015625 0.125,-0.484375 0.1875,-0.734375 l 0.21875,-0.890625 C 1.90625,-2.03125 1.96875,-2.25 2.03125,-2.46875 c 0.03125,-0.171875 0.109375,-0.46875 0.125,-0.5 0.140625,-0.3125 0.671875,-1.21875 1.625,-1.21875 0.453125,0 0.53125,0.375 0.53125,0.703125 0,0.609375 -0.484375,1.890625 -0.640625,2.3125 C 3.578125,-0.9375 3.5625,-0.8125 3.5625,-0.703125 c 0,0.46875 0.359375,0.8125 0.828125,0.8125 0.9375,0 1.296875,-1.453125 1.296875,-1.53125 0,-0.109375 -0.078125,-0.109375 -0.109375,-0.109375 -0.109375,0 -0.109375,0.03125 -0.15625,0.1875 -0.203125,0.671875 -0.53125,1.234375 -1.015625,1.234375 -0.171875,0 -0.234375,-0.09375 -0.234375,-0.328125 0,-0.25 0.078125,-0.484375 0.171875,-0.703125 0.1875,-0.53125 0.609375,-1.625 0.609375,-2.203125 0,-0.65625 -0.421875,-1.0625 -1.140625,-1.0625 -0.90625,0 -1.390625,0.640625 -1.5625,0.875 -0.046875,-0.5625 -0.453125,-0.875 -0.921875,-0.875 -0.453125,0 -0.640625,0.390625 -0.734375,0.5625 C 0.421875,-3.5 0.296875,-2.90625 0.296875,-2.875 c 0,0.109375 0.09375,0.109375 0.109375,0.109375 0.109375,0 0.109375,-0.015625 0.171875,-0.234375 0.171875,-0.703125 0.375,-1.1875 0.734375,-1.1875 0.1875,0 0.296875,0.125 0.296875,0.453125 0,0.21875 -0.03125,0.328125 -0.15625,0.84375 z m 0,0"
               id="id-1c4d57d2-c945-4481-8c6e-a7797acc85ba" />
          </g>
        </g>
      </defs>
      <g
         fill="#000000"
         fill-opacity="1"
         id="id-ebeef47f-37de-4f5c-b47e-ba4cbcf4aa9e"
         transform="translate(-149.009,-130.359)">
        <g
           transform="translate(148.712,134.765)"
           id="g1296">
          <path
             d="m 0.875,-0.59375 c -0.03125,0.15625 -0.09375,0.390625 -0.09375,0.4375 0,0.171875 0.140625,0.265625 0.296875,0.265625 0.125,0 0.296875,-0.078125 0.375,-0.28125 C 1.46875,-0.203125 1.796875,-1.5625 1.84375,-1.75 c 0.078125,-0.328125 0.265625,-1.015625 0.3125,-1.296875 0.046875,-0.125 0.328125,-0.59375 0.5625,-0.8125 0.078125,-0.0625 0.375,-0.328125 0.796875,-0.328125 0.265625,0 0.40625,0.125 0.421875,0.125 -0.296875,0.046875 -0.515625,0.28125 -0.515625,0.546875 0,0.15625 0.109375,0.34375 0.375,0.34375 0.265625,0 0.546875,-0.234375 0.546875,-0.59375 0,-0.34375 -0.3125,-0.640625 -0.828125,-0.640625 C 2.875,-4.40625 2.4375,-3.921875 2.25,-3.640625 2.15625,-4.09375 1.796875,-4.40625 1.328125,-4.40625 0.875,-4.40625 0.6875,-4.015625 0.59375,-3.84375 0.421875,-3.5 0.296875,-2.90625 0.296875,-2.875 c 0,0.109375 0.09375,0.109375 0.109375,0.109375 0.109375,0 0.109375,-0.015625 0.171875,-0.234375 0.171875,-0.703125 0.375,-1.1875 0.734375,-1.1875 0.15625,0 0.296875,0.078125 0.296875,0.453125 0,0.21875 -0.03125,0.328125 -0.15625,0.84375 z m 0,0"
             id="id-33a5b17d-e7a3-4395-942e-abf800e17ab5" />
        </g>
      </g>
      <g
         fill="#000000"
         fill-opacity="1"
         id="id-dc719217-06d0-4766-a3e5-d813a5d03d79"
         transform="translate(-149.009,-130.359)">
        <g
           transform="translate(153.486,134.765)"
           id="g9196">
          <path
             d="m 0.875,-0.59375 c -0.03125,0.15625 -0.09375,0.390625 -0.09375,0.4375 0,0.171875 0.140625,0.265625 0.296875,0.265625 0.125,0 0.296875,-0.078125 0.375,-0.28125 0,-0.015625 0.125,-0.484375 0.1875,-0.734375 l 0.21875,-0.890625 C 1.90625,-2.03125 1.96875,-2.25 2.03125,-2.46875 c 0.03125,-0.171875 0.109375,-0.46875 0.125,-0.5 0.140625,-0.3125 0.671875,-1.21875 1.625,-1.21875 0.453125,0 0.53125,0.375 0.53125,0.703125 0,0.609375 -0.484375,1.890625 -0.640625,2.3125 C 3.578125,-0.9375 3.5625,-0.8125 3.5625,-0.703125 c 0,0.46875 0.359375,0.8125 0.828125,0.8125 0.9375,0 1.296875,-1.453125 1.296875,-1.53125 0,-0.109375 -0.078125,-0.109375 -0.109375,-0.109375 -0.109375,0 -0.109375,0.03125 -0.15625,0.1875 -0.203125,0.671875 -0.53125,1.234375 -1.015625,1.234375 -0.171875,0 -0.234375,-0.09375 -0.234375,-0.328125 0,-0.25 0.078125,-0.484375 0.171875,-0.703125 0.1875,-0.53125 0.609375,-1.625 0.609375,-2.203125 0,-0.65625 -0.421875,-1.0625 -1.140625,-1.0625 -0.90625,0 -1.390625,0.640625 -1.5625,0.875 -0.046875,-0.5625 -0.453125,-0.875 -0.921875,-0.875 -0.453125,0 -0.640625,0.390625 -0.734375,0.5625 C 0.421875,-3.5 0.296875,-2.90625 0.296875,-2.875 c 0,0.109375 0.09375,0.109375 0.109375,0.109375 0.109375,0 0.109375,-0.015625 0.171875,-0.234375 0.171875,-0.703125 0.375,-1.1875 0.734375,-1.1875 0.1875,0 0.296875,0.125 0.296875,0.453125 0,0.21875 -0.03125,0.328125 -0.15625,0.84375 z m 0,0"
             id="id-44e55963-5f14-48ca-b593-e04812f87825" />
        </g>
      </g>
    </g>
    <path
       style="fill:none;stroke:#000000;stroke-width:0.481723;stroke-miterlimit:6;stroke-dasharray:none;stroke-opacity:1;marker-start:url(#ConcaveTriangle);marker-end:url(#ConcaveTriangle)"
       d="M 42.722855,60.860212 V 112.81802 H 102.90678"
       id="path1"
       sodipodi:nodetypes="ccc" />
    <path
       style="fill:none;stroke:#717171;stroke-width:0.321149;stroke-miterlimit:6;stroke-dasharray:1.92689, 0.321149;stroke-dashoffset:0;stroke-opacity:1"
       d="M 80.710516,75.827008 V 113.82973"
       id="path5"
       sodipodi:nodetypes="cc" />
    <path
       style="fill:none;stroke:#717171;stroke-width:0.321149;stroke-miterlimit:6;stroke-dasharray:1.9269, 0.321149;stroke-dashoffset:0;stroke-opacity:1"
       d="M 79.807358,75.16382 H 41.895845"
       id="path6"
       sodipodi:nodetypes="cc" />
    <path
       style="fill:none;stroke:#717171;stroke-width:0.321149;stroke-miterlimit:6;stroke-dasharray:1.92689, 0.321149;stroke-dashoffset:0;stroke-opacity:1"
       d="M 68.500436,94.240982 V 113.65355"
       id="path5-4"
       sodipodi:nodetypes="cc" />
    <path
       style="fill:none;stroke:#717171;stroke-width:0.321149;stroke-miterlimit:6;stroke-dasharray:1.9269, 0.321149;stroke-dashoffset:0;stroke-opacity:1"
       d="M 68.551385,94.367913 H 41.790991"
       id="path6-7"
       sodipodi:nodetypes="cc" />
    <g
       id="g10"
       transform="translate(-178.10895,-14.125591)">
      <path
         id="path9"
         style="fill:none;stroke:#000000;stroke-width:0.481723;stroke-miterlimit:6;stroke-dasharray:none"
         d="m 224.17641,103.48443 c 1.55539,-0.22568 3.14605,-0.34251 4.76399,-0.34251 8.50221,0 16.25092,3.22614 22.08875,8.52104 l 3.57737,3.53215 c 5.88406,5.52694 13.80309,8.91252 22.51286,8.91252 2.16653,0 4.28412,-0.20948 6.33364,-0.6093"
         sodipodi:nodetypes="csccsc" />
      <path
         id="path9-8-8"
         style="fill:none;stroke:#000000;stroke-width:0.481723;stroke-miterlimit:6"
         d="m 283.72133,99.776557 c -1.82842,1.385983 -4.10762,2.208333 -6.5789,2.208333 -4.34417,0 -7.14221,-2.319051 -9.83304,-5.239973 -11.17902,-12.134933 -23.58778,-15.79909 -38.63457,-15.79909 -1.50292,0 -2.99179,0.06013 -4.46434,0.178119"
         sodipodi:nodetypes="csssc" />
    </g>
    <g
       transform="matrix(0.63019512,0,0,0.63019512,66.753818,114.00431)"
       ns2:version="1.10.2"
       ns2:texconverter="pdflatex"
       ns2:pdfconverter="inkscape"
       ns2:text="$x'$"
       ns2:preamble="C:\Users\surov\AppData\Roaming\inkscape\extensions\textext\default_packages.tex"
       ns2:scale="1.0"
       ns2:alignment="middle center"
       ns2:stroke-to-path="0"
       ns2:inkscapeversion="1.3.2"
       id="g1335"
       ns2:jacobian_sqrt="1.33333">
      <defs
         id="id-2d97de75-2ffb-47c4-8e27-8171a3801573">
        <g
           id="id-0af224d7-6c4c-4b28-ac89-f4af048ca907">
          <g
             id="id-daf1fcdb-c6cb-48f0-a137-fa5283f59710">
            <path
               d="M 3.328125,-3.015625 C 3.390625,-3.265625 3.625,-4.1875 4.3125,-4.1875 c 0.046875,0 0.296875,0 0.5,0.125 C 4.53125,-4 4.34375,-3.765625 4.34375,-3.515625 c 0,0.15625 0.109375,0.34375 0.375,0.34375 0.21875,0 0.53125,-0.171875 0.53125,-0.578125 0,-0.515625 -0.578125,-0.65625 -0.921875,-0.65625 -0.578125,0 -0.921875,0.53125 -1.046875,0.75 -0.25,-0.65625 -0.78125,-0.75 -1.078125,-0.75 -1.03125,0 -1.609375,1.28125 -1.609375,1.53125 0,0.109375 0.109375,0.109375 0.125,0.109375 0.078125,0 0.109375,-0.03125 0.125,-0.109375 0.34375,-1.0625 1,-1.3125 1.34375,-1.3125 0.1875,0 0.53125,0.09375 0.53125,0.671875 0,0.3125 -0.171875,0.96875 -0.53125,2.375 -0.15625,0.609375 -0.515625,1.03125 -0.953125,1.03125 -0.0625,0 -0.28125,0 -0.5,-0.125 0.25,-0.0625 0.46875,-0.265625 0.46875,-0.546875 0,-0.265625 -0.21875,-0.34375 -0.359375,-0.34375 -0.3125,0 -0.546875,0.25 -0.546875,0.578125 0,0.453125 0.484375,0.65625 0.921875,0.65625 0.671875,0 1.03125,-0.703125 1.046875,-0.75 0.125,0.359375 0.484375,0.75 1.078125,0.75 1.03125,0 1.59375,-1.28125 1.59375,-1.53125 0,-0.109375 -0.078125,-0.109375 -0.109375,-0.109375 -0.09375,0 -0.109375,0.046875 -0.140625,0.109375 -0.328125,1.078125 -1,1.3125 -1.3125,1.3125 -0.390625,0 -0.546875,-0.3125 -0.546875,-0.65625 0,-0.21875 0.046875,-0.4375 0.15625,-0.875 z m 0,0"
               id="id-c4789423-99cc-40f3-b91b-aa75a4909014" />
          </g>
          <g
             id="id-983ee6e7-0f78-43c1-aa16-c677340e7238">
            <path
               d="m 2.015625,-3.296875 c 0.0625,-0.109375 0.0625,-0.171875 0.0625,-0.21875 0,-0.21875 -0.1875,-0.375 -0.40625,-0.375 -0.265625,0 -0.34375,0.21875 -0.375,0.328125 L 0.375,-0.546875 c -0.015625,0.015625 -0.046875,0.09375 -0.046875,0.109375 0,0.078125 0.21875,0.15625 0.28125,0.15625 0.046875,0 0.046875,-0.015625 0.09375,-0.125 z m 0,0"
               id="id-4ab459e7-6a94-4a99-a504-895835a67203" />
          </g>
        </g>
      </defs>
      <g
         fill="#000000"
         fill-opacity="1"
         id="id-bf31c57a-bc23-4b1f-bd7d-3ac2e158b5f0"
         transform="translate(-149.009,-127.258)">
        <g
           transform="translate(148.712,134.765)"
           id="g8709">
          <path
             d="M 3.328125,-3.015625 C 3.390625,-3.265625 3.625,-4.1875 4.3125,-4.1875 c 0.046875,0 0.296875,0 0.5,0.125 C 4.53125,-4 4.34375,-3.765625 4.34375,-3.515625 c 0,0.15625 0.109375,0.34375 0.375,0.34375 0.21875,0 0.53125,-0.171875 0.53125,-0.578125 0,-0.515625 -0.578125,-0.65625 -0.921875,-0.65625 -0.578125,0 -0.921875,0.53125 -1.046875,0.75 -0.25,-0.65625 -0.78125,-0.75 -1.078125,-0.75 -1.03125,0 -1.609375,1.28125 -1.609375,1.53125 0,0.109375 0.109375,0.109375 0.125,0.109375 0.078125,0 0.109375,-0.03125 0.125,-0.109375 0.34375,-1.0625 1,-1.3125 1.34375,-1.3125 0.1875,0 0.53125,0.09375 0.53125,0.671875 0,0.3125 -0.171875,0.96875 -0.53125,2.375 -0.15625,0.609375 -0.515625,1.03125 -0.953125,1.03125 -0.0625,0 -0.28125,0 -0.5,-0.125 0.25,-0.0625 0.46875,-0.265625 0.46875,-0.546875 0,-0.265625 -0.21875,-0.34375 -0.359375,-0.34375 -0.3125,0 -0.546875,0.25 -0.546875,0.578125 0,0.453125 0.484375,0.65625 0.921875,0.65625 0.671875,0 1.03125,-0.703125 1.046875,-0.75 0.125,0.359375 0.484375,0.75 1.078125,0.75 1.03125,0 1.59375,-1.28125 1.59375,-1.53125 0,-0.109375 -0.078125,-0.109375 -0.109375,-0.109375 -0.09375,0 -0.109375,0.046875 -0.140625,0.109375 -0.328125,1.078125 -1,1.3125 -1.3125,1.3125 -0.390625,0 -0.546875,-0.3125 -0.546875,-0.65625 0,-0.21875 0.046875,-0.4375 0.15625,-0.875 z m 0,0"
             id="id-a0f55dd3-13ae-4924-a4ed-5640156bd985" />
        </g>
      </g>
      <g
         fill="#000000"
         fill-opacity="1"
         id="id-81ca42ca-d7e3-4a82-b5de-daf57771d787"
         transform="translate(-149.009,-127.258)">
        <g
           transform="translate(154.406,131.149)"
           id="g2470">
          <path
             d="m 2.015625,-3.296875 c 0.0625,-0.109375 0.0625,-0.171875 0.0625,-0.21875 0,-0.21875 -0.1875,-0.375 -0.40625,-0.375 -0.265625,0 -0.34375,0.21875 -0.375,0.328125 L 0.375,-0.546875 c -0.015625,0.015625 -0.046875,0.09375 -0.046875,0.109375 0,0.078125 0.21875,0.15625 0.28125,0.15625 0.046875,0 0.046875,-0.015625 0.09375,-0.125 z m 0,0"
             id="id-699dbb0f-4126-4811-a686-5f4fdedae331" />
        </g>
      </g>
    </g>
    <g
       transform="matrix(0.55690534,0,0,0.55690534,21.714781,91.410612)"
       ns2:version="1.10.2"
       ns2:texconverter="pdflatex"
       ns2:pdfconverter="inkscape"
       ns2:text="$\\varrho_z\\left(x,y\\right)$"
       ns2:preamble="C:\Users\surov\AppData\Roaming\inkscape\extensions\textext\default_packages.tex"
       ns2:scale="1.0"
       ns2:alignment="middle center"
       ns2:stroke-to-path="0"
       ns2:inkscapeversion="1.3.2"
       id="g6196"
       ns2:jacobian_sqrt="1.33333">
      <defs
         id="id-b739ccdb-45c7-4514-893e-e9dcf99229aa">
        <g
           id="id-8b2f9e7a-2ba9-49af-987e-6f98630b17ea">
          <g
             id="id-e6b41ba7-1a57-414b-8477-512ac7f86ce9">
            <path
               d="M 1.265625,-0.953125 C 1.4375,-0.3125 1.90625,0.109375 2.546875,0.109375 3.734375,0.109375 5,-1.3125 5,-2.78125 c 0,-1.0625 -0.65625,-1.625 -1.375,-1.625 -0.796875,0 -1.796875,0.703125 -2.25,1.96875 -0.046875,0.109375 -0.640625,2.3125 -0.640625,3.203125 0,0.515625 0.1875,0.984375 1.40625,0.984375 0.359375,0 0.5625,-0.046875 0.953125,-0.046875 0.1875,0 0.203125,0 0.265625,0.015625 0.15625,0 0.1875,0.015625 0.203125,0.09375 0,0.0625 0,0.125 0.109375,0.125 0.09375,0 0.15625,-0.046875 0.15625,-0.28125 0,-0.484375 -0.4375,-0.484375 -1.4375,-0.484375 -0.890625,0 -1.359375,0 -1.359375,-0.671875 0,-0.078125 0,-0.453125 0.234375,-1.453125 z m 1.28125,0.84375 c -0.328125,0 -0.734375,-0.234375 -0.734375,-1.046875 0,-0.625 0.296875,-1.625 0.546875,-2.078125 C 2.765625,-3.9375 3.265625,-4.1875 3.59375,-4.1875 c 0.375,0 0.6875,0.296875 0.6875,0.984375 0,0.546875 -0.28125,1.65625 -0.546875,2.140625 -0.328125,0.640625 -0.8125,0.953125 -1.1875,0.953125 z m 0,0"
               id="id-8e2f6699-8f1f-4d4f-bdcd-bef929055053" />
          </g>
          <g
             id="id-af6666c1-bc2f-48a0-a00e-2c022393420f">
            <path
               d="M 3.328125,-3.015625 C 3.390625,-3.265625 3.625,-4.1875 4.3125,-4.1875 c 0.046875,0 0.296875,0 0.5,0.125 C 4.53125,-4 4.34375,-3.765625 4.34375,-3.515625 c 0,0.15625 0.109375,0.34375 0.375,0.34375 0.21875,0 0.53125,-0.171875 0.53125,-0.578125 0,-0.515625 -0.578125,-0.65625 -0.921875,-0.65625 -0.578125,0 -0.921875,0.53125 -1.046875,0.75 -0.25,-0.65625 -0.78125,-0.75 -1.078125,-0.75 -1.03125,0 -1.609375,1.28125 -1.609375,1.53125 0,0.109375 0.109375,0.109375 0.125,0.109375 0.078125,0 0.109375,-0.03125 0.125,-0.109375 0.34375,-1.0625 1,-1.3125 1.34375,-1.3125 0.1875,0 0.53125,0.09375 0.53125,0.671875 0,0.3125 -0.171875,0.96875 -0.53125,2.375 -0.15625,0.609375 -0.515625,1.03125 -0.953125,1.03125 -0.0625,0 -0.28125,0 -0.5,-0.125 0.25,-0.0625 0.46875,-0.265625 0.46875,-0.546875 0,-0.265625 -0.21875,-0.34375 -0.359375,-0.34375 -0.3125,0 -0.546875,0.25 -0.546875,0.578125 0,0.453125 0.484375,0.65625 0.921875,0.65625 0.671875,0 1.03125,-0.703125 1.046875,-0.75 0.125,0.359375 0.484375,0.75 1.078125,0.75 1.03125,0 1.59375,-1.28125 1.59375,-1.53125 0,-0.109375 -0.078125,-0.109375 -0.109375,-0.109375 -0.09375,0 -0.109375,0.046875 -0.140625,0.109375 -0.328125,1.078125 -1,1.3125 -1.3125,1.3125 -0.390625,0 -0.546875,-0.3125 -0.546875,-0.65625 0,-0.21875 0.046875,-0.4375 0.15625,-0.875 z m 0,0"
               id="id-c844ad79-97c8-4180-8701-337d46976eac" />
          </g>
          <g
             id="id-0e1205e3-a587-4a5b-bd76-e189c76c9682">
            <path
               d="m 2.03125,-0.015625 c 0,-0.65625 -0.25,-1.046875 -0.640625,-1.046875 -0.328125,0 -0.53125,0.25 -0.53125,0.53125 C 0.859375,-0.265625 1.0625,0 1.390625,0 1.5,0 1.640625,-0.046875 1.734375,-0.125 1.765625,-0.15625 1.78125,-0.15625 1.78125,-0.15625 c 0.015625,0 0.015625,0 0.015625,0.140625 0,0.75 -0.34375,1.34375 -0.671875,1.671875 -0.109375,0.109375 -0.109375,0.125 -0.109375,0.15625 0,0.078125 0.046875,0.109375 0.09375,0.109375 0.109375,0 0.921875,-0.765625 0.921875,-1.9375 z m 0,0"
               id="id-fdfc5c4d-2fc5-4068-961d-3b8fe9151b6b" />
          </g>
          <g
             id="id-6172e90a-1edc-4acd-b472-cdfc3088ebaa">
            <path
               d="m 4.84375,-3.796875 c 0.046875,-0.140625 0.046875,-0.15625 0.046875,-0.234375 0,-0.171875 -0.140625,-0.265625 -0.296875,-0.265625 -0.09375,0 -0.25,0.0625 -0.34375,0.203125 -0.015625,0.0625 -0.109375,0.359375 -0.140625,0.546875 -0.078125,0.25 -0.140625,0.53125 -0.203125,0.796875 l -0.453125,1.796875 c -0.03125,0.140625 -0.46875,0.84375 -1.125,0.84375 -0.5,0 -0.609375,-0.4375 -0.609375,-0.8125 C 1.71875,-1.375 1.890625,-2 2.21875,-2.875 2.375,-3.28125 2.421875,-3.390625 2.421875,-3.59375 c 0,-0.4375 -0.3125,-0.8125 -0.8125,-0.8125 -0.953125,0 -1.3125,1.453125 -1.3125,1.53125 0,0.109375 0.09375,0.109375 0.109375,0.109375 0.109375,0 0.109375,-0.03125 0.15625,-0.1875 0.28125,-0.9375 0.671875,-1.234375 1.015625,-1.234375 0.078125,0 0.25,0 0.25,0.3125 0,0.25 -0.109375,0.515625 -0.171875,0.703125 -0.40625,1.0625 -0.578125,1.625 -0.578125,2.09375 0,0.890625 0.625,1.1875 1.21875,1.1875 0.390625,0 0.71875,-0.171875 1,-0.453125 -0.125,0.515625 -0.25,1.015625 -0.640625,1.546875 -0.265625,0.328125 -0.640625,0.625 -1.09375,0.625 -0.140625,0 -0.59375,-0.03125 -0.765625,-0.421875 0.15625,0 0.296875,0 0.421875,-0.125 C 1.328125,1.203125 1.421875,1.0625 1.421875,0.875 1.421875,0.5625 1.15625,0.53125 1.0625,0.53125 0.828125,0.53125 0.5,0.6875 0.5,1.171875 c 0,0.5 0.4375,0.875 1.0625,0.875 1.015625,0 2.046875,-0.90625 2.328125,-2.03125 z m 0,0"
               id="id-edfadd9f-9b4f-4898-99fa-f868d6bc6756" />
          </g>
          <g
             id="id-ae4f7d58-6552-41c6-91c9-b68beddfa080">
            <path
               d="m 1.171875,-0.609375 c 0.1875,-0.1875 0.3125,-0.3125 0.890625,-0.796875 0.15625,-0.109375 0.671875,-0.53125 0.875,-0.71875 0.421875,-0.421875 0.6875,-0.78125 0.6875,-0.859375 0,-0.09375 -0.078125,-0.09375 -0.109375,-0.09375 -0.0625,0 -0.09375,0.015625 -0.125,0.078125 -0.21875,0.3125 -0.359375,0.421875 -0.53125,0.421875 -0.078125,0 -0.1875,0 -0.390625,-0.203125 -0.234375,-0.25 -0.390625,-0.296875 -0.546875,-0.296875 -0.5625,0 -0.9375,0.609375 -0.9375,0.8125 0,0.078125 0.0625,0.09375 0.109375,0.09375 0.09375,0 0.109375,-0.015625 0.125,-0.09375 0.109375,-0.25 0.5,-0.265625 0.609375,-0.265625 0.171875,0 0.34375,0.046875 0.4375,0.0625 0.390625,0.078125 0.4375,0.078125 0.609375,0.078125 -0.171875,0.203125 -0.296875,0.328125 -0.96875,0.84375 -0.546875,0.4375 -0.734375,0.609375 -0.859375,0.75 -0.421875,0.40625 -0.625,0.71875 -0.625,0.78125 0,0.078125 0.09375,0.078125 0.125,0.078125 0.0625,0 0.078125,0 0.109375,-0.0625 0.1875,-0.265625 0.40625,-0.421875 0.640625,-0.421875 0.09375,0 0.1875,0 0.375,0.171875 0.21875,0.21875 0.359375,0.3125 0.59375,0.3125 C 3,0.0625 3.46875,-0.78125 3.46875,-1.015625 3.46875,-1.09375 3.390625,-1.09375 3.359375,-1.09375 3.265625,-1.09375 3.25,-1.0625 3.21875,-0.984375 3.09375,-0.640625 2.6875,-0.46875 2.34375,-0.46875 2.1875,-0.46875 2,-0.515625 1.828125,-0.546875 1.515625,-0.625 1.453125,-0.625 1.328125,-0.625 c -0.015625,0 -0.109375,0 -0.15625,0.015625 z m 0,0"
               id="id-9976cf00-8a43-4af2-a89d-131171cb2b9a" />
          </g>
          <g
             id="id-85832245-8666-4a51-88af-421cd6654fdb">
            <path
               d="m 3.296875,2.390625 c 0,-0.03125 0,-0.046875 -0.171875,-0.21875 C 1.890625,0.921875 1.5625,-0.96875 1.5625,-2.5 c 0,-1.734375 0.375,-3.46875 1.609375,-4.703125 0.125,-0.125 0.125,-0.140625 0.125,-0.171875 0,-0.078125 -0.03125,-0.109375 -0.09375,-0.109375 -0.109375,0 -1,0.6875 -1.59375,1.953125 -0.5,1.09375 -0.625,2.203125 -0.625,3.03125 0,0.78125 0.109375,1.984375 0.65625,3.125 C 2.25,1.84375 3.09375,2.5 3.203125,2.5 c 0.0625,0 0.09375,-0.03125 0.09375,-0.109375 z m 0,0"
               id="id-93c43b7a-ee6d-497c-a8c2-5b3b0aa6d2f1" />
          </g>
          <g
             id="id-2af8f8d2-43c6-4219-b58a-5616e3d9ad39">
            <path
               d="m 2.875,-2.5 c 0,-0.765625 -0.109375,-1.96875 -0.65625,-3.109375 -0.59375,-1.21875 -1.453125,-1.875 -1.546875,-1.875 -0.0625,0 -0.109375,0.046875 -0.109375,0.109375 0,0.03125 0,0.046875 0.1875,0.234375 0.984375,0.984375 1.546875,2.5625 1.546875,4.640625 0,1.71875 -0.359375,3.46875 -1.59375,4.71875 C 0.5625,2.34375 0.5625,2.359375 0.5625,2.390625 0.5625,2.453125 0.609375,2.5 0.671875,2.5 0.765625,2.5 1.671875,1.8125 2.25,0.546875 2.765625,-0.546875 2.875,-1.65625 2.875,-2.5 Z m 0,0"
               id="id-ad0d23a5-2661-4826-aece-ead0238fd6fd" />
          </g>
        </g>
      </defs>
      <g
         fill="#000000"
         fill-opacity="1"
         id="id-8ad8921b-a6b9-4afa-b402-9ed98b7e7853"
         transform="translate(-149.446,-127.281)">
        <g
           transform="translate(148.712,134.765)"
           id="g4300">
          <path
             d="M 1.265625,-0.953125 C 1.4375,-0.3125 1.90625,0.109375 2.546875,0.109375 3.734375,0.109375 5,-1.3125 5,-2.78125 c 0,-1.0625 -0.65625,-1.625 -1.375,-1.625 -0.796875,0 -1.796875,0.703125 -2.25,1.96875 -0.046875,0.109375 -0.640625,2.3125 -0.640625,3.203125 0,0.515625 0.1875,0.984375 1.40625,0.984375 0.359375,0 0.5625,-0.046875 0.953125,-0.046875 0.1875,0 0.203125,0 0.265625,0.015625 0.15625,0 0.1875,0.015625 0.203125,0.09375 0,0.0625 0,0.125 0.109375,0.125 0.09375,0 0.15625,-0.046875 0.15625,-0.28125 0,-0.484375 -0.4375,-0.484375 -1.4375,-0.484375 -0.890625,0 -1.359375,0 -1.359375,-0.671875 0,-0.078125 0,-0.453125 0.234375,-1.453125 z m 1.28125,0.84375 c -0.328125,0 -0.734375,-0.234375 -0.734375,-1.046875 0,-0.625 0.296875,-1.625 0.546875,-2.078125 C 2.765625,-3.9375 3.265625,-4.1875 3.59375,-4.1875 c 0.375,0 0.6875,0.296875 0.6875,0.984375 0,0.546875 -0.28125,1.65625 -0.546875,2.140625 -0.328125,0.640625 -0.8125,0.953125 -1.1875,0.953125 z m 0,0"
             id="id-0c338c69-a1a9-49d5-a957-6d9863668aff" />
        </g>
      </g>
      <g
         fill="#000000"
         fill-opacity="1"
         id="id-87b00b65-0056-4c15-b38c-22f5498529bb"
         transform="translate(-149.446,-127.281)">
        <g
           transform="translate(153.863,136.259)"
           id="g9551">
          <path
             d="m 1.171875,-0.609375 c 0.1875,-0.1875 0.3125,-0.3125 0.890625,-0.796875 0.15625,-0.109375 0.671875,-0.53125 0.875,-0.71875 0.421875,-0.421875 0.6875,-0.78125 0.6875,-0.859375 0,-0.09375 -0.078125,-0.09375 -0.109375,-0.09375 -0.0625,0 -0.09375,0.015625 -0.125,0.078125 -0.21875,0.3125 -0.359375,0.421875 -0.53125,0.421875 -0.078125,0 -0.1875,0 -0.390625,-0.203125 -0.234375,-0.25 -0.390625,-0.296875 -0.546875,-0.296875 -0.5625,0 -0.9375,0.609375 -0.9375,0.8125 0,0.078125 0.0625,0.09375 0.109375,0.09375 0.09375,0 0.109375,-0.015625 0.125,-0.09375 0.109375,-0.25 0.5,-0.265625 0.609375,-0.265625 0.171875,0 0.34375,0.046875 0.4375,0.0625 0.390625,0.078125 0.4375,0.078125 0.609375,0.078125 -0.171875,0.203125 -0.296875,0.328125 -0.96875,0.84375 -0.546875,0.4375 -0.734375,0.609375 -0.859375,0.75 -0.421875,0.40625 -0.625,0.71875 -0.625,0.78125 0,0.078125 0.09375,0.078125 0.125,0.078125 0.0625,0 0.078125,0 0.109375,-0.0625 0.1875,-0.265625 0.40625,-0.421875 0.640625,-0.421875 0.09375,0 0.1875,0 0.375,0.171875 0.21875,0.21875 0.359375,0.3125 0.59375,0.3125 C 3,0.0625 3.46875,-0.78125 3.46875,-1.015625 3.46875,-1.09375 3.390625,-1.09375 3.359375,-1.09375 3.265625,-1.09375 3.25,-1.0625 3.21875,-0.984375 3.09375,-0.640625 2.6875,-0.46875 2.34375,-0.46875 2.1875,-0.46875 2,-0.515625 1.828125,-0.546875 1.515625,-0.625 1.453125,-0.625 1.328125,-0.625 c -0.015625,0 -0.109375,0 -0.15625,0.015625 z m 0,0"
             id="id-9a66294e-1ba0-4bc8-b4d5-4f7c405ce42e" />
        </g>
      </g>
      <g
         fill="#000000"
         fill-opacity="1"
         id="id-700f289f-3897-4292-b2c8-2c8b66946d70"
         transform="translate(-149.446,-127.281)">
        <g
           transform="translate(160.114,134.765)"
           id="g2811">
          <path
             d="m 3.296875,2.390625 c 0,-0.03125 0,-0.046875 -0.171875,-0.21875 C 1.890625,0.921875 1.5625,-0.96875 1.5625,-2.5 c 0,-1.734375 0.375,-3.46875 1.609375,-4.703125 0.125,-0.125 0.125,-0.140625 0.125,-0.171875 0,-0.078125 -0.03125,-0.109375 -0.09375,-0.109375 -0.109375,0 -1,0.6875 -1.59375,1.953125 -0.5,1.09375 -0.625,2.203125 -0.625,3.03125 0,0.78125 0.109375,1.984375 0.65625,3.125 C 2.25,1.84375 3.09375,2.5 3.203125,2.5 c 0.0625,0 0.09375,-0.03125 0.09375,-0.109375 z m 0,0"
             id="id-b3aedc73-19b1-4c78-a0d6-487d203fd198" />
        </g>
      </g>
      <g
         fill="#000000"
         fill-opacity="1"
         id="id-21c8201e-0602-4af5-8f4d-3fe7685642d0"
         transform="translate(-149.446,-127.281)">
        <g
           transform="translate(163.988,134.765)"
           id="g7448">
          <path
             d="M 3.328125,-3.015625 C 3.390625,-3.265625 3.625,-4.1875 4.3125,-4.1875 c 0.046875,0 0.296875,0 0.5,0.125 C 4.53125,-4 4.34375,-3.765625 4.34375,-3.515625 c 0,0.15625 0.109375,0.34375 0.375,0.34375 0.21875,0 0.53125,-0.171875 0.53125,-0.578125 0,-0.515625 -0.578125,-0.65625 -0.921875,-0.65625 -0.578125,0 -0.921875,0.53125 -1.046875,0.75 -0.25,-0.65625 -0.78125,-0.75 -1.078125,-0.75 -1.03125,0 -1.609375,1.28125 -1.609375,1.53125 0,0.109375 0.109375,0.109375 0.125,0.109375 0.078125,0 0.109375,-0.03125 0.125,-0.109375 0.34375,-1.0625 1,-1.3125 1.34375,-1.3125 0.1875,0 0.53125,0.09375 0.53125,0.671875 0,0.3125 -0.171875,0.96875 -0.53125,2.375 -0.15625,0.609375 -0.515625,1.03125 -0.953125,1.03125 -0.0625,0 -0.28125,0 -0.5,-0.125 0.25,-0.0625 0.46875,-0.265625 0.46875,-0.546875 0,-0.265625 -0.21875,-0.34375 -0.359375,-0.34375 -0.3125,0 -0.546875,0.25 -0.546875,0.578125 0,0.453125 0.484375,0.65625 0.921875,0.65625 0.671875,0 1.03125,-0.703125 1.046875,-0.75 0.125,0.359375 0.484375,0.75 1.078125,0.75 1.03125,0 1.59375,-1.28125 1.59375,-1.53125 0,-0.109375 -0.078125,-0.109375 -0.109375,-0.109375 -0.09375,0 -0.109375,0.046875 -0.140625,0.109375 -0.328125,1.078125 -1,1.3125 -1.3125,1.3125 -0.390625,0 -0.546875,-0.3125 -0.546875,-0.65625 0,-0.21875 0.046875,-0.4375 0.15625,-0.875 z m 0,0"
             id="id-d606a43f-2311-4f31-b3f8-bef5ac4adf20" />
        </g>
        <g
           transform="translate(169.682,134.765)"
           id="g9807">
          <path
             d="m 2.03125,-0.015625 c 0,-0.65625 -0.25,-1.046875 -0.640625,-1.046875 -0.328125,0 -0.53125,0.25 -0.53125,0.53125 C 0.859375,-0.265625 1.0625,0 1.390625,0 1.5,0 1.640625,-0.046875 1.734375,-0.125 1.765625,-0.15625 1.78125,-0.15625 1.78125,-0.15625 c 0.015625,0 0.015625,0 0.015625,0.140625 0,0.75 -0.34375,1.34375 -0.671875,1.671875 -0.109375,0.109375 -0.109375,0.125 -0.109375,0.15625 0,0.078125 0.046875,0.109375 0.09375,0.109375 0.109375,0 0.921875,-0.765625 0.921875,-1.9375 z m 0,0"
             id="id-9296259b-9e08-49f6-a576-b0c9499fb713" />
        </g>
      </g>
      <g
         fill="#000000"
         fill-opacity="1"
         id="id-4edce93a-5990-43f6-b8a1-8be90eb38233"
         transform="translate(-149.446,-127.281)">
        <g
           transform="translate(174.113,134.765)"
           id="g1571">
          <path
             d="m 4.84375,-3.796875 c 0.046875,-0.140625 0.046875,-0.15625 0.046875,-0.234375 0,-0.171875 -0.140625,-0.265625 -0.296875,-0.265625 -0.09375,0 -0.25,0.0625 -0.34375,0.203125 -0.015625,0.0625 -0.109375,0.359375 -0.140625,0.546875 -0.078125,0.25 -0.140625,0.53125 -0.203125,0.796875 l -0.453125,1.796875 c -0.03125,0.140625 -0.46875,0.84375 -1.125,0.84375 -0.5,0 -0.609375,-0.4375 -0.609375,-0.8125 C 1.71875,-1.375 1.890625,-2 2.21875,-2.875 2.375,-3.28125 2.421875,-3.390625 2.421875,-3.59375 c 0,-0.4375 -0.3125,-0.8125 -0.8125,-0.8125 -0.953125,0 -1.3125,1.453125 -1.3125,1.53125 0,0.109375 0.09375,0.109375 0.109375,0.109375 0.109375,0 0.109375,-0.03125 0.15625,-0.1875 0.28125,-0.9375 0.671875,-1.234375 1.015625,-1.234375 0.078125,0 0.25,0 0.25,0.3125 0,0.25 -0.109375,0.515625 -0.171875,0.703125 -0.40625,1.0625 -0.578125,1.625 -0.578125,2.09375 0,0.890625 0.625,1.1875 1.21875,1.1875 0.390625,0 0.71875,-0.171875 1,-0.453125 -0.125,0.515625 -0.25,1.015625 -0.640625,1.546875 -0.265625,0.328125 -0.640625,0.625 -1.09375,0.625 -0.140625,0 -0.59375,-0.03125 -0.765625,-0.421875 0.15625,0 0.296875,0 0.421875,-0.125 C 1.328125,1.203125 1.421875,1.0625 1.421875,0.875 1.421875,0.5625 1.15625,0.53125 1.0625,0.53125 0.828125,0.53125 0.5,0.6875 0.5,1.171875 c 0,0.5 0.4375,0.875 1.0625,0.875 1.015625,0 2.046875,-0.90625 2.328125,-2.03125 z m 0,0"
             id="id-9d3453df-b64b-41c1-9bb8-c966aca411f2" />
        </g>
      </g>
      <g
         fill="#000000"
         fill-opacity="1"
         id="id-3dbae08d-6027-417c-a183-219a4ede242d"
         transform="translate(-149.446,-127.281)">
        <g
           transform="translate(179.352,134.765)"
           id="g2358">
          <path
             d="m 2.875,-2.5 c 0,-0.765625 -0.109375,-1.96875 -0.65625,-3.109375 -0.59375,-1.21875 -1.453125,-1.875 -1.546875,-1.875 -0.0625,0 -0.109375,0.046875 -0.109375,0.109375 0,0.03125 0,0.046875 0.1875,0.234375 0.984375,0.984375 1.546875,2.5625 1.546875,4.640625 0,1.71875 -0.359375,3.46875 -1.59375,4.71875 C 0.5625,2.34375 0.5625,2.359375 0.5625,2.390625 0.5625,2.453125 0.609375,2.5 0.671875,2.5 0.765625,2.5 1.671875,1.8125 2.25,0.546875 2.765625,-0.546875 2.875,-1.65625 2.875,-2.5 Z m 0,0"
             id="id-19f832cb-552c-4d28-9609-3c20b88c83b5" />
        </g>
      </g>
    </g>
  </g>
</svg>
