<?xml version="1.0" encoding="UTF-8" standalone="no"?>
<!-- Created with Inkscape (http://www.inkscape.org/) -->

<svg
   width="135.59114mm"
   height="88.277107mm"
   viewBox="-1 -1 138.591 90.230177"
   version="1.1"
   id="svg1"
   inkscape:version="1.3.2 (091e20e, 2023-11-25, custom)"
   sodipodi:docname="rolling-ball-schematic.svg"
   inkscape:export-filename="rolling-ball-schematic.png"
   inkscape:export-xdpi="300"
   inkscape:export-ydpi="300"
   xmlns:inkscape="http://www.inkscape.org/namespaces/inkscape"
   xmlns:sodipodi="http://sodipodi.sourceforge.net/DTD/sodipodi-0.dtd"
   xmlns="http://www.w3.org/2000/svg"
   xmlns:svg="http://www.w3.org/2000/svg">
  <sodipodi:namedview
     id="namedview1"
     pagecolor="#ffffff"
     bordercolor="#000000"
     borderopacity="0.25"
     inkscape:showpageshadow="2"
     inkscape:pageopacity="0.0"
     inkscape:pagecheckerboard="0"
     inkscape:deskcolor="#d1d1d1"
     inkscape:document-units="mm"
     inkscape:zoom="1.4677327"
     inkscape:cx="231.64982"
     inkscape:cy="224.49592"
     inkscape:window-width="2560"
     inkscape:window-height="1361"
     inkscape:window-x="-9"
     inkscape:window-y="-9"
     inkscape:window-maximized="1"
     inkscape:current-layer="layer1" />
  <defs
     id="defs1">
    <marker
       style="overflow:visible"
       id="marker5"
       refX="0"
       refY="0"
       orient="auto-start-reverse"
       inkscape:stockid="Concave triangle arrow"
       markerWidth="1"
       markerHeight="1"
       viewBox="0 0 1 1"
       inkscape:isstock="true"
       inkscape:collect="always"
       preserveAspectRatio="xMidYMid">
      <path
         transform="scale(0.7)"
         d="M -2,-4 9,0 -2,4 c 2,-2.33 2,-5.66 0,-8 z"
         style="fill:context-stroke;fill-rule:evenodd;stroke:none"
         id="path5" />
    </marker>
    <marker
       style="overflow:visible"
       id="ConcaveTriangle"
       refX="0"
       refY="0"
       orient="auto-start-reverse"
       inkscape:stockid="Concave triangle arrow"
       markerWidth="1"
       markerHeight="1"
       viewBox="0 0 1 1"
       inkscape:isstock="true"
       inkscape:collect="always"
       preserveAspectRatio="xMidYMid">
      <path
         transform="scale(0.7)"
         d="M -2,-4 9,0 -2,4 c 2,-2.33 2,-5.66 0,-8 z"
         style="fill:context-stroke;fill-rule:evenodd;stroke:none"
         id="path7" />
    </marker>
    <marker
       style="overflow:visible"
       id="ConcaveTriangle-3"
       refX="0"
       refY="0"
       orient="auto-start-reverse"
       inkscape:stockid="Concave triangle arrow"
       markerWidth="1"
       markerHeight="1"
       viewBox="0 0 1 1"
       inkscape:isstock="true"
       inkscape:collect="always"
       preserveAspectRatio="xMidYMid">
      <path
         transform="scale(0.7)"
         d="M -2,-4 9,0 -2,4 c 2,-2.33 2,-5.66 0,-8 z"
         style="fill:context-stroke;fill-rule:evenodd;stroke:none"
         id="path7-9" />
    </marker>
    <defs
       id="id-faf61d37-5519-4a97-bbce-af7f53ab26a0">
      <g
         id="id-bc5745c8-24fb-44eb-be29-a490bbbf1897">
        <g
           id="id-134547dc-2f02-4e93-81db-036050017302">
          <path
             d="m 0.875,-0.59375 c -0.03125,0.15625 -0.09375,0.390625 -0.09375,0.4375 0,0.171875 0.140625,0.265625 0.296875,0.265625 0.125,0 0.296875,-0.078125 0.375,-0.28125 C 1.46875,-0.203125 1.796875,-1.5625 1.84375,-1.75 c 0.078125,-0.328125 0.265625,-1.015625 0.3125,-1.296875 0.046875,-0.125 0.328125,-0.59375 0.5625,-0.8125 0.078125,-0.0625 0.375,-0.328125 0.796875,-0.328125 0.265625,0 0.40625,0.125 0.421875,0.125 -0.296875,0.046875 -0.515625,0.28125 -0.515625,0.546875 0,0.15625 0.109375,0.34375 0.375,0.34375 0.265625,0 0.546875,-0.234375 0.546875,-0.59375 0,-0.34375 -0.3125,-0.640625 -0.828125,-0.640625 C 2.875,-4.40625 2.4375,-3.921875 2.25,-3.640625 2.15625,-4.09375 1.796875,-4.40625 1.328125,-4.40625 0.875,-4.40625 0.6875,-4.015625 0.59375,-3.84375 0.421875,-3.5 0.296875,-2.90625 0.296875,-2.875 c 0,0.109375 0.09375,0.109375 0.109375,0.109375 0.109375,0 0.109375,-0.015625 0.171875,-0.234375 0.171875,-0.703125 0.375,-1.1875 0.734375,-1.1875 0.15625,0 0.296875,0.078125 0.296875,0.453125 0,0.21875 -0.03125,0.328125 -0.15625,0.84375 z m 0,0"
             id="id-f7002e15-6749-40a4-ac2f-103f710f3d10" />
        </g>
        <g
           id="id-5ba2b339-21e7-4c71-bbb3-48df6c74c9bd">
          <path
             d="m 0.875,-0.59375 c -0.03125,0.15625 -0.09375,0.390625 -0.09375,0.4375 0,0.171875 0.140625,0.265625 0.296875,0.265625 0.125,0 0.296875,-0.078125 0.375,-0.28125 0,-0.015625 0.125,-0.484375 0.1875,-0.734375 l 0.21875,-0.890625 C 1.90625,-2.03125 1.96875,-2.25 2.03125,-2.46875 c 0.03125,-0.171875 0.109375,-0.46875 0.125,-0.5 0.140625,-0.3125 0.671875,-1.21875 1.625,-1.21875 0.453125,0 0.53125,0.375 0.53125,0.703125 0,0.609375 -0.484375,1.890625 -0.640625,2.3125 C 3.578125,-0.9375 3.5625,-0.8125 3.5625,-0.703125 c 0,0.46875 0.359375,0.8125 0.828125,0.8125 0.9375,0 1.296875,-1.453125 1.296875,-1.53125 0,-0.109375 -0.078125,-0.109375 -0.109375,-0.109375 -0.109375,0 -0.109375,0.03125 -0.15625,0.1875 -0.203125,0.671875 -0.53125,1.234375 -1.015625,1.234375 -0.171875,0 -0.234375,-0.09375 -0.234375,-0.328125 0,-0.25 0.078125,-0.484375 0.171875,-0.703125 0.1875,-0.53125 0.609375,-1.625 0.609375,-2.203125 0,-0.65625 -0.421875,-1.0625 -1.140625,-1.0625 -0.90625,0 -1.390625,0.640625 -1.5625,0.875 -0.046875,-0.5625 -0.453125,-0.875 -0.921875,-0.875 -0.453125,0 -0.640625,0.390625 -0.734375,0.5625 C 0.421875,-3.5 0.296875,-2.90625 0.296875,-2.875 c 0,0.109375 0.09375,0.109375 0.109375,0.109375 0.109375,0 0.109375,-0.015625 0.171875,-0.234375 0.171875,-0.703125 0.375,-1.1875 0.734375,-1.1875 0.1875,0 0.296875,0.125 0.296875,0.453125 0,0.21875 -0.03125,0.328125 -0.15625,0.84375 z m 0,0"
             id="id-82c5e614-a3d0-4429-9da1-f44cfb3cfaaf" />
        </g>
        <g
           id="id-82d3501f-17ec-4532-b9e7-81d645291b24">
          <path
             d="m 6.03125,-3.703125 c 0,-0.453125 -0.171875,-0.703125 -0.40625,-0.703125 -0.25,0 -0.515625,0.234375 -0.515625,0.46875 0,0.09375 0.046875,0.203125 0.140625,0.296875 0.171875,0.15625 0.359375,0.421875 0.359375,0.84375 0,0.390625 -0.203125,0.96875 -0.5,1.421875 C 4.8125,-0.953125 4.4375,-0.609375 3.96875,-0.609375 3.40625,-0.609375 3.09375,-0.96875 3,-1.5 c 0.109375,-0.265625 0.34375,-0.90625 0.34375,-1.1875 0,-0.109375 -0.046875,-0.21875 -0.1875,-0.21875 -0.078125,0 -0.1875,0.03125 -0.265625,0.171875 C 2.78125,-2.53125 2.65625,-1.890625 2.65625,-1.53125 2.328125,-1.0625 1.9375,-0.609375 1.3125,-0.609375 c -0.671875,0 -0.875,-0.59375 -0.875,-1.140625 0,-1.25 1.015625,-2.296875 1.015625,-2.421875 0,-0.109375 -0.078125,-0.1875 -0.1875,-0.1875 -0.125,0 -0.203125,0.125 -0.265625,0.21875 -0.5,0.734375 -0.875,1.921875 -0.875,2.828125 0,0.6875 0.21875,1.421875 1.046875,1.421875 0.703125,0 1.171875,-0.5 1.53125,-1.046875 0.09375,0.578125 0.484375,1.046875 1.09375,1.046875 0.78125,0 1.25,-0.609375 1.609375,-1.359375 0.25,-0.484375 0.625,-1.84375 0.625,-2.453125 z m 0,0"
             id="id-17e9d385-596d-43c4-845c-c87a92b8432d" />
        </g>
        <g
           id="id-ac793c99-dc73-468a-b2fc-047f92c12601">
          <path
             d="m 4.671875,-3.703125 c 0,-0.546875 -0.265625,-0.703125 -0.4375,-0.703125 -0.25,0 -0.5,0.265625 -0.5,0.484375 0,0.125 0.046875,0.1875 0.15625,0.296875 0.21875,0.203125 0.34375,0.453125 0.34375,0.8125 0,0.421875 -0.609375,2.703125 -1.765625,2.703125 -0.515625,0 -0.75,-0.34375 -0.75,-0.875 0,-0.546875 0.28125,-1.28125 0.578125,-2.109375 0.078125,-0.171875 0.125,-0.3125 0.125,-0.5 0,-0.4375 -0.3125,-0.8125 -0.8125,-0.8125 -0.9375,0 -1.3125,1.453125 -1.3125,1.53125 0,0.109375 0.09375,0.109375 0.109375,0.109375 0.109375,0 0.109375,-0.03125 0.15625,-0.1875 0.296875,-1 0.71875,-1.234375 1.015625,-1.234375 0.078125,0 0.25,0 0.25,0.3125 0,0.25 -0.109375,0.53125 -0.171875,0.703125 -0.4375,1.15625 -0.5625,1.609375 -0.5625,2.046875 0,1.078125 0.875,1.234375 1.328125,1.234375 1.671875,0 2.25,-3.296875 2.25,-3.8125 z m 0,0"
             id="id-702fe375-30a6-4031-b905-dcc754bc411c" />
        </g>
      </g>
    </defs>
  </defs>
  <g
     inkscape:label="Layer 1"
     inkscape:groupmode="layer"
     id="layer1"
     transform="translate(-11.276217,-22.906332)">
    <path
       style="fill:#c5c8f8;fill-opacity:1;stroke:#242424;stroke-width:0.2;stroke-miterlimit:6;stroke-opacity:1"
       d="M 50.654944,62.552547 H 146.7371 l -12.97669,48.530893 -122.290941,-0.002 C 13.249603,108.5655 50.654944,62.552427 50.654944,62.552427 Z"
       id="path2"
       sodipodi:nodetypes="ccccc" />
    <circle
       style="fill:#dbdbdb;fill-opacity:1;stroke:#242424;stroke-width:0.2;stroke-miterlimit:6;stroke-opacity:1"
       id="path1"
       cx="85.295525"
       cy="55.99514"
       r="32.988808" />
    <path
       style="fill:#c5c8f8;fill-opacity:1;stroke:#242424;stroke-width:0.5;stroke-miterlimit:6;stroke-dasharray:none;stroke-opacity:1;marker-end:url(#ConcaveTriangle)"
       d="M 85.291899,89.020331 V 58.903717"
       id="path3"
       sodipodi:nodetypes="cc" />
    <path
       style="fill:#c5c8f8;fill-opacity:1;stroke:#242424;stroke-width:0.5;stroke-miterlimit:6;stroke-dasharray:none;stroke-opacity:1;marker-end:url(#ConcaveTriangle-3)"
       d="m 85.165072,55.931868 h 8.574742"
       id="path3-7"
       sodipodi:nodetypes="cc" />
    <path
       style="fill:#c5c8f8;fill-opacity:1;stroke:#242424;stroke-width:0.25;stroke-miterlimit:6;stroke-dasharray:2, 0.25;stroke-dashoffset:0;stroke-opacity:1"
       d="m 71.621927,105.73061 c 0.94604,-0.75683 31.597663,-38.976727 31.597663,-38.976727"
       id="path4-8"
       sodipodi:nodetypes="cc" />
    <path
       style="fill:#c5c8f8;fill-opacity:1;stroke:#242424;stroke-width:0.499999;stroke-miterlimit:6;stroke-dasharray:none;stroke-opacity:1;marker-end:url(#marker5)"
       d="M 85.212231,89.1 C 85.530901,88.845063 95.855792,75.970813 95.855792,75.970813"
       id="path4"
       sodipodi:nodetypes="cc" />
    <circle
       style="fill:#242424;fill-opacity:1;stroke:#242424;stroke-width:0.25;stroke-miterlimit:6;stroke-dasharray:none;stroke-dashoffset:0;stroke-opacity:1"
       id="path6"
       cx="85.156464"
       cy="89.187637"
       r="0.637339" />
  </g>
  <g
     id="g5"
     transform="translate(35.863527,-7.5836624)">
    <path
       d="m 24.720175,56.585066 c -0.03262,0.163014 -0.0978,0.407547 -0.0978,0.456451 0,0.17931 0.146719,0.277142 0.309736,0.277142 0.130423,0 0.309736,-0.08151 0.391246,-0.293437 0.01627,-0.03259 0.35864,-1.450868 0.407545,-1.646492 0.08151,-0.342338 0.277142,-1.059622 0.32604,-1.353053 0.04892,-0.130424 0.342339,-0.619472 0.586866,-0.847701 0.08151,-0.06521 0.391246,-0.342339 0.831397,-0.342339 0.277142,0 0.423849,0.130423 0.44015,0.130423 -0.309736,0.04892 -0.537962,0.293438 -0.537962,0.570568 0,0.163014 0.114128,0.35864 0.391246,0.35864 0.277142,0 0.570565,-0.244521 0.570565,-0.619472 0,-0.35864 -0.326037,-0.668376 -0.863999,-0.668376 -0.668377,0 -1.124831,0.505359 -1.320454,0.798793 -0.0978,-0.472756 -0.472754,-0.798793 -0.961811,-0.798793 -0.472753,0 -0.668376,0.407547 -0.766188,0.586869 -0.17931,0.35864 -0.309736,0.978112 -0.309736,1.010715 0,0.114098 0.0978,0.114098 0.114128,0.114098 0.114098,0 0.114098,-0.01627 0.17931,-0.244521 0.179309,-0.733585 0.391246,-1.238944 0.766187,-1.238944 0.163015,0 0.309736,0.08151 0.309736,0.472756 0,0.228226 -0.03259,0.342339 -0.163014,0.880301 z m 0,0"
       id="id-b9767099-9581-4bcd-a5e1-5fc90d69b7d3"
       style="fill:#0319ad;fill-opacity:1;stroke-width:1.04332" />
    <path
       d="m 29.700988,56.585066 c -0.03262,0.163014 -0.0978,0.407547 -0.0978,0.456451 0,0.17931 0.146718,0.277142 0.309736,0.277142 0.130423,0 0.309736,-0.08151 0.391246,-0.293437 0,-0.01627 0.130423,-0.505359 0.195635,-0.766188 l 0.228225,-0.929208 c 0.04892,-0.244521 0.114099,-0.472756 0.17931,-0.700982 0.03262,-0.17931 0.114128,-0.489055 0.130424,-0.52166 0.146718,-0.326038 0.700979,-1.271547 1.695395,-1.271547 0.472754,0 0.554264,0.391246 0.554264,0.733585 0,0.635773 -0.505359,1.972529 -0.668377,2.412679 -0.0978,0.244521 -0.114098,0.374945 -0.114098,0.489058 0,0.489057 0.374942,0.847698 0.863999,0.847698 0.978113,0 1.353057,-1.516075 1.353057,-1.597585 0,-0.114098 -0.08151,-0.114098 -0.114127,-0.114098 -0.114098,0 -0.114098,0.03259 -0.163015,0.195635 -0.21193,0.700979 -0.554263,1.287848 -1.059622,1.287848 -0.17931,0 -0.244521,-0.0978 -0.244521,-0.342339 0,-0.260817 0.08151,-0.505359 0.179309,-0.733585 0.195635,-0.554266 0.635777,-1.695398 0.635777,-2.298566 0,-0.684681 -0.440154,-1.108529 -1.19004,-1.108529 -0.945509,0 -1.450868,0.668376 -1.630187,0.912906 -0.04892,-0.586869 -0.472756,-0.912906 -0.961814,-0.912906 -0.472753,0 -0.668376,0.407547 -0.766188,0.586869 -0.179309,0.35864 -0.309736,0.978112 -0.309736,1.010715 0,0.114098 0.0978,0.114098 0.114099,0.114098 0.114127,0 0.114127,-0.01627 0.179309,-0.244521 0.17931,-0.733585 0.391246,-1.238944 0.766188,-1.238944 0.195635,0 0.309736,0.130423 0.309736,0.472756 0,0.228226 -0.03259,0.342339 -0.163014,0.8803 z m 0,0"
       id="id-a97ced48-e8d7-46d6-b5e5-716add142cdd"
       style="fill:#0319ad;fill-opacity:1;stroke-width:1.04332" />
  </g>
  <path
     d="m 95.245493,50.534396 c 0,-0.472756 -0.17931,-0.733585 -0.42385,-0.733585 -0.26081,0 -0.53796,0.244521 -0.53796,0.489058 0,0.0978 0.0489,0.21193 0.14672,0.309736 0.17931,0.163014 0.37494,0.44015 0.37494,0.8803 0,0.407548 -0.21193,1.010718 -0.52166,1.483472 -0.30973,0.44015 -0.70098,0.798793 -1.19003,0.798793 -0.58687,0 -0.91291,-0.374944 -1.01072,-0.929208 0.1141,-0.277142 0.35864,-0.945509 0.35864,-1.238944 0,-0.114127 -0.0489,-0.228226 -0.19564,-0.228226 -0.0815,0 -0.19563,0.03259 -0.27714,0.17931 -0.11412,0.211931 -0.24452,0.880301 -0.24452,1.255246 -0.34234,0.489054 -0.74989,0.96181 -1.40196,0.96181 -0.70098,0 -0.91291,-0.619472 -0.91291,-1.190039 0,-1.30415 1.05963,-2.396375 1.05963,-2.526793 0,-0.114098 -0.0815,-0.195634 -0.19564,-0.195634 -0.13042,0 -0.21193,0.130423 -0.27714,0.228226 -0.52166,0.766187 -0.91291,2.005131 -0.91291,2.950641 0,0.717283 0.22823,1.483471 1.09223,1.483471 0.73359,0 1.22264,-0.52166 1.59759,-1.092225 0.0978,0.603167 0.50535,1.092225 1.14113,1.092225 0.81509,0 1.30415,-0.635773 1.67909,-1.418266 0.26082,-0.505356 0.65208,-1.923621 0.65208,-2.559395 z m 0,0"
     id="id-26981c10-18a4-4762-9e29-5e1e1c178dd3"
     style="fill:#0319ad;fill-opacity:1;stroke-width:1.04332" />
  <path
     d="m 80.698484,26.378657 c 0,-0.570568 -0.277142,-0.733585 -0.456455,-0.733585 -0.260817,0 -0.52166,0.277142 -0.52166,0.505359 0,0.130423 0.04892,0.195635 0.163014,0.309736 0.228226,0.21193 0.35864,0.472753 0.35864,0.847698 0,0.44015 -0.635773,2.820227 -1.842111,2.820227 -0.537962,0 -0.782493,-0.358644 -0.782493,-0.912907 0,-0.570565 0.293438,-1.336755 0.603171,-2.200755 0.08151,-0.179309 0.130423,-0.326037 0.130423,-0.52166 0,-0.456452 -0.326037,-0.847698 -0.847698,-0.847698 -0.978112,0 -1.369358,1.516074 -1.369358,1.597584 0,0.114098 0.0978,0.114098 0.114128,0.114098 0.114098,0 0.114098,-0.03259 0.163014,-0.195634 0.309736,-1.043321 0.749886,-1.287849 1.059622,-1.287849 0.08151,0 0.260817,0 0.260817,0.326038 0,0.260817 -0.114098,0.554266 -0.179309,0.733585 -0.456455,1.206341 -0.58687,1.679094 -0.58687,2.135549 0,1.124831 0.912907,1.287848 1.38566,1.287848 1.744303,0 2.347474,-3.439699 2.347474,-3.977661 z m 0,0"
     id="id-024c65c4-b46a-4482-bf5d-ca223fc698fc"
     style="fill:#0319ad;fill-opacity:1;stroke-width:1.04332" />
</svg>
