<?xml version="1.0" encoding="UTF-8" standalone="no"?>
<!-- Created with Inkscape (http://www.inkscape.org/) -->

<svg
   width="105.66397mm"
   height="113.69203mm"
   viewBox="-7 -6 117.40441 126.32448"
   version="1.1"
   id="svg1"
   inkscape:version="1.3.2 (091e20e, 2023-11-25, custom)"
   sodipodi:docname="table-speed-control.svg"
   xmlns:inkscape="http://www.inkscape.org/namespaces/inkscape"
   xmlns:sodipodi="http://sodipodi.sourceforge.net/DTD/sodipodi-0.dtd"
   xmlns="http://www.w3.org/2000/svg"
   xmlns:svg="http://www.w3.org/2000/svg">
  <sodipodi:namedview
     id="namedview1"
     pagecolor="#ffffff"
     bordercolor="#000000"
     borderopacity="0.25"
     inkscape:showpageshadow="2"
     inkscape:pageopacity="0.0"
     inkscape:pagecheckerboard="0"
     inkscape:deskcolor="#d1d1d1"
     inkscape:document-units="mm"
     inkscape:zoom="1.3182941"
     inkscape:cx="205.5687"
     inkscape:cy="382.69155"
     inkscape:window-width="2560"
     inkscape:window-height="1361"
     inkscape:window-x="-9"
     inkscape:window-y="-9"
     inkscape:window-maximized="1"
     inkscape:current-layer="g7" />
  <defs
     id="defs1" />
  <g
     inkscape:label="Layer 1"
     inkscape:groupmode="layer"
     id="layer1"
     transform="translate(-35.777634,-28.552389)">
    <g
       id="g7">
      <g
         id="g8">
        <path
           style="-inkscape-font-specification:Calibri;stroke-width:1.22064;stroke-miterlimit:6"
           d="m 54.328135,36.821554 q 0,0.134147 -0.01388,0.231287 -0.0093,0.09252 -0.03238,0.15265 -0.02313,0.05551 -0.06013,0.08326 -0.03238,0.02775 -0.07401,0.02775 h -1.498745 v 4.824664 q 0,0.04626 -0.03238,0.08326 -0.02775,0.03701 -0.09714,0.06013 -0.06939,0.02313 -0.189656,0.03701 -0.115644,0.01388 -0.291423,0.01388 -0.175778,0 -0.296048,-0.01388 -0.115644,-0.01388 -0.18503,-0.03701 -0.06939,-0.02313 -0.101767,-0.06013 -0.02775,-0.03701 -0.02775,-0.08326 V 37.31651 H 49.92904 q -0.04626,0 -0.07864,-0.02775 -0.03238,-0.02775 -0.05551,-0.08326 -0.02313,-0.06013 -0.03701,-0.15265 -0.0093,-0.09714 -0.0093,-0.231287 0,-0.138773 0.0093,-0.235914 0.01388,-0.09714 0.03701,-0.15265 0.02313,-0.06013 0.05551,-0.08326 0.03238,-0.02775 0.07864,-0.02775 h 4.21869 q 0.04163,0 0.07401,0.02775 0.03701,0.02313 0.06013,0.08326 0.02313,0.05551 0.03238,0.15265 0.01388,0.09714 0.01388,0.235914 z m 3.436937,5.342749 q 0,0.06476 -0.04626,0.101766 -0.04626,0.03701 -0.148025,0.05088 -0.09714,0.0185 -0.291422,0.0185 -0.208159,0 -0.3053,-0.0185 -0.09252,-0.01388 -0.134147,-0.05088 -0.03701,-0.03701 -0.03701,-0.101766 v -0.328429 q -0.254417,0.27292 -0.582846,0.42557 -0.323803,0.15265 -0.721618,0.15265 -0.328428,0 -0.605974,-0.08789 -0.272919,-0.08326 -0.476453,-0.249791 -0.198907,-0.171153 -0.309925,-0.420944 -0.111019,-0.24979 -0.111019,-0.582845 0,-0.360809 0.138773,-0.624477 0.143399,-0.268294 0.420944,-0.439447 0.282171,-0.175779 0.698489,-0.259042 0.416318,-0.08326 0.966783,-0.08326 h 0.402441 v -0.249791 q 0,-0.194282 -0.04163,-0.33768 -0.03701,-0.148024 -0.129521,-0.245165 -0.08789,-0.09714 -0.240539,-0.143399 -0.148024,-0.04626 -0.370061,-0.04626 -0.291422,0 -0.52271,0.06476 -0.226662,0.06476 -0.402441,0.143399 -0.175779,0.07864 -0.296048,0.143398 -0.115644,0.06476 -0.189656,0.06476 -0.05088,0 -0.09252,-0.03238 -0.03701,-0.03238 -0.06476,-0.09252 -0.02313,-0.06013 -0.03701,-0.148024 -0.01388,-0.08789 -0.01388,-0.194282 0,-0.143398 0.02313,-0.226662 0.02313,-0.08326 0.08789,-0.148024 0.06476,-0.06939 0.226662,-0.148024 0.161901,-0.08326 0.379312,-0.15265 0.21741,-0.06939 0.471827,-0.111018 0.259042,-0.04626 0.531962,-0.04626 0.485705,0 0.828011,0.09714 0.346931,0.09251 0.568968,0.291423 0.222036,0.194282 0.323803,0.504207 0.101766,0.309926 0.101766,0.735496 z M 56.62251,40.397264 h -0.444072 q -0.282172,0 -0.481079,0.04163 -0.198908,0.04163 -0.323803,0.124896 -0.124895,0.08326 -0.18503,0.203533 -0.05551,0.115644 -0.05551,0.268294 0,0.259042 0.161901,0.407067 0.166527,0.148024 0.45795,0.148024 0.245165,0 0.448698,-0.124896 0.208159,-0.124895 0.420944,-0.365434 z m 6.457557,-0.365435 q 0,0.550465 -0.12027,0.989912 -0.120269,0.439447 -0.346931,0.749372 -0.226662,0.309926 -0.559717,0.476453 -0.328429,0.166528 -0.749372,0.166528 -0.208159,0 -0.388564,-0.04163 -0.180405,-0.03701 -0.346932,-0.124896 -0.161901,-0.08789 -0.323803,-0.222036 -0.157275,-0.134147 -0.323803,-0.323803 v 0.448698 q 0,0.05088 -0.02775,0.08789 -0.02313,0.03238 -0.08326,0.05551 -0.05551,0.02313 -0.15265,0.03238 -0.09714,0.0093 -0.235913,0.0093 -0.143399,0 -0.24054,-0.0093 -0.09251,-0.0093 -0.15265,-0.03238 -0.05551,-0.02313 -0.07864,-0.05551 -0.02313,-0.03701 -0.02313,-0.08789 v -6.08287 q 0,-0.04626 0.02775,-0.08326 0.02775,-0.03701 0.09251,-0.06014 0.06939,-0.02775 0.180405,-0.04163 0.111018,-0.01388 0.282171,-0.01388 0.171153,0 0.282171,0.01388 0.111018,0.01388 0.175779,0.04163 0.06939,0.02313 0.09714,0.06014 0.02775,0.03701 0.02775,0.08326 v 2.280498 q 0.157276,-0.157275 0.314552,-0.268294 0.157275,-0.111018 0.314551,-0.180404 0.157276,-0.07401 0.323803,-0.106392 0.166527,-0.03238 0.351558,-0.03238 0.45795,0 0.777127,0.18503 0.319177,0.180405 0.518085,0.490331 0.203533,0.309925 0.296048,0.726244 0.09251,0.411692 0.09251,0.869642 z m -1.207322,0.08326 q 0,-0.263668 -0.04163,-0.508833 -0.03701,-0.245165 -0.134147,-0.434821 -0.09714,-0.189656 -0.254417,-0.300674 -0.15265,-0.115644 -0.388563,-0.115644 -0.115644,0 -0.226662,0.03238 -0.111019,0.03238 -0.231288,0.111018 -0.115644,0.07864 -0.24054,0.203534 -0.124895,0.124895 -0.263668,0.309925 v 1.369224 q 0.245165,0.314552 0.467202,0.481079 0.226662,0.161902 0.471827,0.161902 0.226662,0 0.383938,-0.115644 0.157275,-0.115644 0.259042,-0.300675 0.106393,-0.18503 0.15265,-0.420943 0.04626,-0.235914 0.04626,-0.471828 z m 3.302789,2.035333 q 0,0.04626 -0.02775,0.08326 -0.02775,0.03238 -0.09714,0.05551 -0.06476,0.02313 -0.175779,0.03238 -0.111018,0.01388 -0.282171,0.01388 -0.171153,0 -0.282171,-0.01388 -0.111018,-0.0093 -0.180405,-0.03238 -0.06476,-0.02313 -0.09251,-0.05551 -0.02775,-0.03701 -0.02775,-0.08326 v -6.08287 q 0,-0.04626 0.02775,-0.08326 0.02775,-0.03701 0.09251,-0.06014 0.06939,-0.02775 0.180405,-0.04163 0.111018,-0.01388 0.282171,-0.01388 0.171153,0 0.282171,0.01388 0.111018,0.01388 0.175779,0.04163 0.06939,0.02313 0.09714,0.06014 0.02775,0.03701 0.02775,0.08326 z m 4.972689,-2.183357 q 0,0.212785 -0.09714,0.314552 -0.09251,0.101766 -0.259043,0.101766 h -2.511786 q 0,0.263668 0.06014,0.481079 0.06476,0.212785 0.198908,0.365435 0.138772,0.148024 0.351557,0.226662 0.217411,0.07864 0.518085,0.07864 0.3053,0 0.536588,-0.04163 0.231288,-0.04626 0.397815,-0.09714 0.171153,-0.05551 0.282171,-0.09714 0.111018,-0.04626 0.180405,-0.04626 0.04163,0 0.06939,0.0185 0.02775,0.01388 0.04626,0.05551 0.0185,0.04163 0.02313,0.120269 0.0093,0.07401 0.0093,0.189656 0,0.101767 -0.0046,0.175779 -0.0046,0.06939 -0.01388,0.12027 -0.0093,0.05088 -0.02775,0.08789 -0.0185,0.03238 -0.05088,0.06476 -0.02776,0.03238 -0.161902,0.08789 -0.134147,0.05551 -0.342306,0.111018 -0.208159,0.05088 -0.476453,0.08789 -0.268293,0.04163 -0.573593,0.04163 -0.550465,0 -0.966784,-0.138773 -0.411692,-0.138773 -0.689237,-0.420944 -0.277546,-0.282171 -0.416318,-0.712367 -0.134147,-0.430195 -0.134147,-1.008415 0,-0.550465 0.143398,-0.989912 0.143399,-0.444072 0.416318,-0.749372 0.27292,-0.309926 0.661483,-0.471827 0.39319,-0.161902 0.88352,-0.161902 0.518085,0 0.88352,0.15265 0.37006,0.15265 0.605974,0.42557 0.235913,0.268294 0.346931,0.638354 0.111019,0.370061 0.111019,0.804882 z m -1.128685,-0.333054 q 0.01388,-0.490331 -0.198908,-0.767876 -0.208159,-0.282171 -0.647606,-0.282171 -0.222036,0 -0.388563,0.08326 -0.161902,0.08326 -0.27292,0.226662 -0.106392,0.138772 -0.166527,0.333054 -0.05551,0.189656 -0.06476,0.407067 z m 7.845284,0.878893 q 0,0.471828 -0.175779,0.828011 -0.175779,0.356183 -0.476453,0.596723 -0.300674,0.235913 -0.703115,0.356183 -0.402441,0.12027 -0.860391,0.12027 -0.309925,0 -0.578219,-0.05088 -0.263668,-0.05088 -0.467202,-0.120269 -0.203533,-0.07401 -0.342306,-0.15265 -0.134147,-0.07864 -0.194281,-0.138773 -0.06014,-0.06014 -0.08789,-0.171153 -0.02313,-0.115644 -0.02313,-0.328429 0,-0.143398 0.0093,-0.240539 0.0093,-0.09714 0.02775,-0.157276 0.02313,-0.06014 0.05551,-0.08326 0.03701,-0.02775 0.08326,-0.02775 0.06476,0 0.180405,0.07864 0.120269,0.07401 0.3053,0.166527 0.18503,0.09251 0.439446,0.171153 0.259043,0.07401 0.596723,0.07401 0.222036,0 0.397815,-0.05088 0.175779,-0.05551 0.296049,-0.15265 0.124895,-0.09714 0.189656,-0.24054 0.06476,-0.143398 0.06476,-0.319177 0,-0.203533 -0.111018,-0.346932 -0.111018,-0.148024 -0.291423,-0.259042 -0.175778,-0.115644 -0.40244,-0.212785 -0.226663,-0.101766 -0.467202,-0.212785 -0.240539,-0.111018 -0.467201,-0.24979 -0.226662,-0.143399 -0.407067,-0.337681 -0.175779,-0.198907 -0.286797,-0.467201 -0.111018,-0.268294 -0.111018,-0.64298 0,-0.430196 0.157276,-0.753999 0.161901,-0.328428 0.430195,-0.541213 0.27292,-0.217411 0.638355,-0.323803 0.37006,-0.106393 0.781752,-0.106393 0.212785,0 0.42557,0.03238 0.212785,0.03238 0.397815,0.08789 0.18503,0.05551 0.328429,0.124896 0.143398,0.06939 0.189656,0.115643 0.04626,0.04626 0.06013,0.07864 0.0185,0.03238 0.02775,0.08789 0.01388,0.05088 0.0185,0.134147 0.0046,0.07864 0.0046,0.198907 0,0.134147 -0.0093,0.226662 -0.0046,0.09251 -0.02313,0.15265 -0.01388,0.06014 -0.04626,0.08789 -0.02775,0.02775 -0.07864,0.02775 -0.05088,0 -0.161901,-0.06476 -0.111018,-0.06476 -0.27292,-0.138773 -0.161901,-0.07864 -0.374686,-0.138773 -0.212785,-0.06476 -0.467202,-0.06476 -0.198907,0 -0.346931,0.05088 -0.148024,0.04626 -0.249791,0.134147 -0.09714,0.08326 -0.148024,0.203533 -0.04626,0.12027 -0.04626,0.254417 0,0.198907 0.106392,0.346932 0.111019,0.143398 0.291423,0.259042 0.18503,0.111018 0.416318,0.212785 0.231288,0.09714 0.471827,0.208159 0.24054,0.111018 0.471828,0.254416 0.231287,0.138773 0.411692,0.337681 0.180405,0.194281 0.291423,0.462575 0.111018,0.263668 0.111018,0.624477 z m 5.014321,-0.485704 q 0,0.550465 -0.120269,0.994538 -0.115644,0.439447 -0.342306,0.749372 -0.226663,0.309926 -0.564343,0.476453 -0.33768,0.166528 -0.772501,0.166528 -0.180405,0 -0.333055,-0.03701 -0.148024,-0.03238 -0.291422,-0.101766 -0.138773,-0.07401 -0.277546,-0.180405 -0.138772,-0.106392 -0.286797,-0.249791 v 1.942818 q 0,0.04626 -0.02775,0.08326 -0.02775,0.03701 -0.09714,0.06014 -0.06476,0.02775 -0.175779,0.04163 -0.111018,0.01388 -0.282171,0.01388 -0.171153,0 -0.282171,-0.01388 -0.111018,-0.01388 -0.180405,-0.04163 -0.06476,-0.02313 -0.09252,-0.06014 -0.02775,-0.03701 -0.02775,-0.08326 V 38.02425 q 0,-0.04626 0.02313,-0.07864 0.02313,-0.03701 0.07864,-0.06013 0.06013,-0.02313 0.15265,-0.03238 0.09714,-0.01388 0.24054,-0.01388 0.138772,0 0.231287,0.01388 0.09714,0.0093 0.15265,0.03238 0.06014,0.02313 0.08326,0.06013 0.02313,0.03238 0.02313,0.07864 v 0.485705 q 0.180404,-0.18503 0.351557,-0.323803 0.175779,-0.143399 0.356184,-0.235914 0.180404,-0.09714 0.37006,-0.143398 0.194282,-0.04626 0.411693,-0.04626 0.453324,0 0.772501,0.180405 0.319177,0.175778 0.518085,0.485704 0.203533,0.309926 0.296048,0.721618 0.09252,0.411693 0.09252,0.878894 z m -1.211948,0.08326 q 0,-0.263668 -0.04163,-0.504208 -0.03701,-0.245165 -0.134147,-0.434821 -0.09252,-0.189656 -0.249791,-0.300674 -0.15265,-0.115644 -0.383937,-0.115644 -0.115644,0 -0.231288,0.03701 -0.111018,0.03238 -0.231288,0.111018 -0.115644,0.07864 -0.240539,0.203533 -0.124896,0.124896 -0.263669,0.309926 v 1.359973 q 0.245165,0.309925 0.467202,0.481078 0.222036,0.166528 0.462575,0.166528 0.226663,0 0.383938,-0.115644 0.161902,-0.115644 0.263668,-0.300675 0.101767,-0.189656 0.148025,-0.425569 0.05088,-0.235914 0.05088,-0.471827 z m 5.953348,-0.143399 q 0,0.212785 -0.09714,0.314552 -0.09252,0.101766 -0.259042,0.101766 h -2.511786 q 0,0.263668 0.06014,0.481079 0.06476,0.212785 0.198907,0.365435 0.138773,0.148024 0.351558,0.226662 0.21741,0.07864 0.518085,0.07864 0.3053,0 0.536587,-0.04163 0.231288,-0.04626 0.397815,-0.09714 0.171153,-0.05551 0.282172,-0.09714 0.111018,-0.04626 0.180404,-0.04626 0.04163,0 0.06939,0.0185 0.02775,0.01388 0.04626,0.05551 0.0185,0.04163 0.02313,0.120269 0.0093,0.07401 0.0093,0.189656 0,0.101767 -0.0046,0.175779 -0.0046,0.06939 -0.01388,0.12027 -0.0093,0.05088 -0.02775,0.08789 -0.0185,0.03238 -0.05088,0.06476 -0.02775,0.03238 -0.161901,0.08789 -0.134147,0.05551 -0.342306,0.111018 -0.208159,0.05088 -0.476453,0.08789 -0.268294,0.04163 -0.573594,0.04163 -0.550465,0 -0.966783,-0.138773 Q 83.396391,42.136548 83.118845,41.854377 82.8413,41.572206 82.702527,41.14201 82.56838,40.711815 82.56838,40.133595 q 0,-0.550465 0.143399,-0.989912 0.143398,-0.444072 0.416318,-0.749372 0.272919,-0.309926 0.661483,-0.471827 0.393189,-0.161902 0.88352,-0.161902 0.518084,0 0.883519,0.15265 0.370061,0.15265 0.605974,0.42557 0.235914,0.268294 0.346932,0.638354 0.111018,0.370061 0.111018,0.804882 z m -1.128685,-0.333054 q 0.01388,-0.490331 -0.198907,-0.767876 -0.208159,-0.282171 -0.647606,-0.282171 -0.222036,0 -0.388564,0.08326 -0.161901,0.08326 -0.272919,0.226662 -0.106393,0.138772 -0.166527,0.333054 -0.05551,0.189656 -0.06476,0.407067 z m 5.897839,0.333054 q 0,0.212785 -0.09714,0.314552 -0.09252,0.101766 -0.259043,0.101766 h -2.511785 q 0,0.263668 0.06013,0.481079 0.06476,0.212785 0.198908,0.365435 0.138773,0.148024 0.351557,0.226662 0.217411,0.07864 0.518085,0.07864 0.3053,0 0.536588,-0.04163 0.231288,-0.04626 0.397815,-0.09714 0.171153,-0.05551 0.282171,-0.09714 0.111018,-0.04626 0.180405,-0.04626 0.04163,0 0.06939,0.0185 0.02775,0.01388 0.04626,0.05551 0.0185,0.04163 0.02313,0.120269 0.0093,0.07401 0.0093,0.189656 0,0.101767 -0.0046,0.175779 -0.0046,0.06939 -0.01388,0.12027 -0.0093,0.05088 -0.02775,0.08789 -0.0185,0.03238 -0.05088,0.06476 -0.02775,0.03238 -0.161901,0.08789 -0.134147,0.05551 -0.342306,0.111018 -0.208159,0.05088 -0.476453,0.08789 -0.268294,0.04163 -0.573594,0.04163 -0.550465,0 -0.966783,-0.138773 -0.411693,-0.138773 -0.689238,-0.420944 -0.277546,-0.282171 -0.416318,-0.712367 -0.134147,-0.430195 -0.134147,-1.008415 0,-0.550465 0.143398,-0.989912 0.143399,-0.444072 0.416318,-0.749372 0.27292,-0.309926 0.661484,-0.471827 0.393189,-0.161902 0.883519,-0.161902 0.518085,0 0.88352,0.15265 0.37006,0.15265 0.605974,0.42557 0.235913,0.268294 0.346932,0.638354 0.111018,0.370061 0.111018,0.804882 z m -1.128685,-0.333054 q 0.01388,-0.490331 -0.198907,-0.767876 -0.20816,-0.282171 -0.647606,-0.282171 -0.222037,0 -0.388564,0.08326 -0.161901,0.08326 -0.27292,0.226662 -0.106392,0.138772 -0.166527,0.333054 -0.05551,0.189656 -0.06476,0.407067 z m 5.999609,2.516411 q 0,0.05088 -0.02313,0.08789 -0.02313,0.03238 -0.07864,0.05551 -0.05551,0.02313 -0.15265,0.03238 -0.09251,0.0093 -0.231288,0.0093 -0.148024,0 -0.240539,-0.0093 -0.09252,-0.0093 -0.15265,-0.03238 -0.05551,-0.02313 -0.08326,-0.05551 -0.02313,-0.03701 -0.02313,-0.08789 v -0.45795 q -0.319178,0.342306 -0.670735,0.531962 -0.346932,0.189657 -0.772502,0.189657 -0.471827,0 -0.800255,-0.180405 -0.323803,-0.18503 -0.531962,-0.494956 -0.203534,-0.309926 -0.296049,-0.721618 -0.09252,-0.416318 -0.09252,-0.874268 0,-0.550465 0.115644,-0.989912 0.12027,-0.439447 0.346932,-0.749373 0.226662,-0.309925 0.564342,-0.476453 0.33768,-0.166527 0.777127,-0.166527 0.346932,0 0.629103,0.143399 0.282171,0.138772 0.559717,0.411692 v -2.23424 q 0,-0.04626 0.02313,-0.08326 0.02775,-0.03701 0.09252,-0.06013 0.06939,-0.02775 0.180404,-0.04163 0.111018,-0.01388 0.282171,-0.01388 0.171153,0 0.282171,0.01388 0.111019,0.01388 0.175779,0.04163 0.06476,0.02313 0.09252,0.06013 0.02775,0.03701 0.02775,0.08326 z m -1.156439,-2.756951 q -0.249791,-0.314551 -0.481079,-0.481078 -0.226662,-0.166528 -0.476453,-0.166528 -0.226662,0 -0.393189,0.115644 -0.161902,0.111018 -0.263669,0.300675 -0.09714,0.189656 -0.148024,0.425569 -0.04626,0.231288 -0.04626,0.476453 0,0.259042 0.04163,0.504208 0.04163,0.245165 0.134146,0.439446 0.09714,0.189656 0.254417,0.3053 0.157276,0.115644 0.397815,0.115644 0.12027,0 0.231288,-0.03238 0.115644,-0.03701 0.231288,-0.115644 0.12027,-0.07864 0.245165,-0.203533 0.124895,-0.129521 0.27292,-0.314552 z m 8.677918,2.007579 q 0,0.115644 -0.009,0.198907 -0.005,0.07864 -0.0185,0.138773 -0.0139,0.05551 -0.037,0.09714 -0.0231,0.04163 -0.074,0.09714 -0.0509,0.05088 -0.19891,0.134147 -0.1434,0.08326 -0.35618,0.161901 -0.20816,0.07401 -0.48108,0.124896 -0.2683,0.05088 -0.58285,0.05088 -0.61522,0 -1.11018,-0.189656 -0.49496,-0.189656 -0.84189,-0.564342 -0.34693,-0.379312 -0.53196,-0.943655 -0.18503,-0.564342 -0.18503,-1.313715 0,-0.76325 0.203533,-1.355346 0.203533,-0.592097 0.568967,-0.994538 0.36544,-0.402441 0.87427,-0.6106 0.51346,-0.208159 1.12868,-0.208159 0.24979,0 0.48108,0.04163 0.23129,0.04163 0.42557,0.111018 0.19891,0.06476 0.35619,0.15265 0.15727,0.08789 0.21741,0.15265 0.0648,0.06014 0.0879,0.101767 0.0231,0.04163 0.037,0.106392 0.0139,0.06476 0.0185,0.15265 0.009,0.08789 0.009,0.21741 0,0.138773 -0.009,0.235914 -0.009,0.09714 -0.0324,0.157276 -0.0231,0.06014 -0.0555,0.08789 -0.0324,0.02776 -0.074,0.02776 -0.0694,0 -0.17578,-0.07864 -0.10639,-0.08326 -0.27754,-0.180405 -0.16653,-0.101766 -0.40244,-0.180404 -0.23129,-0.08326 -0.55509,-0.08326 -0.35619,0 -0.63836,0.148024 -0.27754,0.143399 -0.47645,0.416319 -0.19428,0.268293 -0.29605,0.652231 -0.10177,0.383938 -0.10177,0.865017 0,0.527336 0.1064,0.9159 0.11102,0.383937 0.30992,0.633728 0.20354,0.249791 0.48571,0.374687 0.28679,0.120269 0.64298,0.120269 0.3238,0 0.55971,-0.07401 0.23592,-0.07864 0.40244,-0.171153 0.17116,-0.09251 0.27755,-0.166527 0.11102,-0.07401 0.17115,-0.07401 0.0463,0 0.074,0.0185 0.0277,0.0185 0.0463,0.07401 0.0185,0.05551 0.0278,0.157276 0.009,0.09714 0.009,0.263668 z m 4.97731,-1.355347 q 0,0.527336 -0.13877,0.962157 -0.13877,0.434822 -0.42094,0.749373 -0.28217,0.314552 -0.70774,0.485705 -0.42557,0.171153 -0.99454,0.171153 -0.55047,0 -0.95753,-0.15265 -0.40707,-0.15265 -0.67536,-0.444073 -0.2683,-0.291423 -0.39782,-0.716992 -0.12952,-0.42557 -0.12952,-0.971409 0,-0.527337 0.13877,-0.962158 0.1434,-0.439447 0.42557,-0.749372 0.28217,-0.314552 0.70312,-0.485705 0.42557,-0.171153 0.99453,-0.171153 0.5551,0 0.96216,0.15265 0.40707,0.148024 0.67074,0.439447 0.26829,0.291423 0.39781,0.716992 0.12952,0.42557 0.12952,0.976035 z m -1.19807,0.04626 q 0,-0.3053 -0.0509,-0.559717 -0.0463,-0.259042 -0.1619,-0.448698 -0.11565,-0.189656 -0.30993,-0.296049 -0.18965,-0.106392 -0.48108,-0.106392 -0.25904,0 -0.45332,0.09714 -0.19428,0.09251 -0.31918,0.277545 -0.12489,0.180405 -0.18965,0.439447 -0.0601,0.254417 -0.0601,0.582845 0,0.3053 0.0509,0.564343 0.0509,0.254416 0.16191,0.444072 0.11564,0.189656 0.30992,0.296049 0.19428,0.101766 0.48108,0.101766 0.26367,0 0.45795,-0.09251 0.19428,-0.09714 0.31918,-0.277545 0.12489,-0.180405 0.18503,-0.434821 0.0601,-0.259043 0.0601,-0.587471 z m 6.05975,2.058461 q 0,0.04626 -0.0278,0.08326 -0.0277,0.03238 -0.0925,0.05551 -0.0648,0.02313 -0.18041,0.03238 -0.11102,0.01388 -0.27754,0.01388 -0.17116,0 -0.2868,-0.01388 -0.11102,-0.0093 -0.17578,-0.03238 -0.0648,-0.02313 -0.0925,-0.05551 -0.0278,-0.03701 -0.0278,-0.08326 v -2.35451 q 0,-0.300674 -0.0463,-0.471827 -0.0416,-0.171153 -0.12489,-0.291423 -0.0833,-0.124895 -0.21741,-0.189656 -0.12952,-0.06939 -0.3053,-0.06939 -0.22204,0 -0.4487,0.161901 -0.22666,0.161902 -0.47183,0.471828 v 2.743073 q 0,0.04626 -0.0277,0.08326 -0.0278,0.03238 -0.0971,0.05551 -0.0648,0.02313 -0.17578,0.03238 -0.11102,0.01388 -0.28217,0.01388 -0.17116,0 -0.28217,-0.01388 -0.11102,-0.0093 -0.18041,-0.03238 -0.0648,-0.02313 -0.0925,-0.05551 -0.0278,-0.03701 -0.0278,-0.08326 V 38.02425 q 0,-0.04626 0.0231,-0.07864 0.0231,-0.03701 0.0833,-0.06013 0.0601,-0.02313 0.15265,-0.03238 0.0971,-0.01388 0.24054,-0.01388 0.14803,0 0.24517,0.01388 0.0971,0.0093 0.14802,0.03238 0.0555,0.02313 0.0786,0.06013 0.0231,0.03238 0.0231,0.07864 v 0.476453 q 0.3423,-0.37006 0.69386,-0.555091 0.35619,-0.18503 0.74012,-0.18503 0.42095,0 0.70774,0.138773 0.29143,0.138773 0.46721,0.379312 0.1804,0.235914 0.25904,0.555091 0.0786,0.319177 0.0786,0.767875 z m 3.49707,-0.407066 q 0,0.203533 -0.0278,0.314551 -0.0231,0.106393 -0.0648,0.15265 -0.0416,0.04163 -0.12489,0.07864 -0.0786,0.03238 -0.18966,0.05551 -0.10639,0.02775 -0.23591,0.04163 -0.1249,0.01388 -0.25442,0.01388 -0.34693,0 -0.60135,-0.08789 -0.25441,-0.08789 -0.42094,-0.268294 -0.16653,-0.18503 -0.24516,-0.462576 -0.0786,-0.277545 -0.0786,-0.656857 v -2.113971 h -0.49496 q -0.0879,0 -0.13415,-0.106392 -0.0463,-0.111019 -0.0463,-0.365435 0,-0.134147 0.009,-0.226662 0.0139,-0.09251 0.037,-0.143399 0.0231,-0.05551 0.0555,-0.07864 0.037,-0.02313 0.0833,-0.02313 h 0.49033 v -0.920526 q 0,-0.04626 0.0231,-0.08326 0.0277,-0.03701 0.0925,-0.06013 0.0694,-0.02776 0.18041,-0.03701 0.11564,-0.01388 0.28217,-0.01388 0.17115,0 0.28217,0.01388 0.11564,0.0093 0.1804,0.03701 0.0648,0.02313 0.0925,0.06013 0.0277,0.03701 0.0277,0.08326 v 0.920526 h 0.8974 q 0.0463,0 0.0786,0.02313 0.037,0.02313 0.0601,0.07864 0.0231,0.05088 0.0324,0.143399 0.0139,0.09252 0.0139,0.226662 0,0.254416 -0.0463,0.365435 -0.0463,0.106392 -0.13415,0.106392 h -0.90202 v 1.938192 q 0,0.33768 0.10639,0.508833 0.1064,0.166528 0.37932,0.166528 0.0925,0 0.16652,-0.01388 0.074,-0.0185 0.12953,-0.03701 0.0601,-0.02313 0.0971,-0.03701 0.0416,-0.0185 0.074,-0.0185 0.0277,0 0.0509,0.0185 0.0278,0.01388 0.0416,0.06476 0.0139,0.04626 0.0231,0.129521 0.0139,0.08326 0.0139,0.212785 z m 3.49245,-3.335171 q 0,0.166527 -0.009,0.27292 -0.009,0.106392 -0.0277,0.166527 -0.0185,0.06014 -0.0509,0.08326 -0.0278,0.02313 -0.074,0.02313 -0.037,0 -0.0833,-0.01388 -0.0463,-0.0185 -0.10639,-0.03701 -0.0555,-0.0185 -0.1249,-0.03238 -0.0694,-0.0185 -0.15265,-0.0185 -0.0971,0 -0.19428,0.04163 -0.0971,0.03701 -0.20353,0.120269 -0.10177,0.08326 -0.21741,0.222037 -0.11102,0.138772 -0.24054,0.342306 v 2.57192 q 0,0.04626 -0.0278,0.08326 -0.0278,0.03238 -0.0971,0.05551 -0.0648,0.02313 -0.17578,0.03238 -0.11102,0.01388 -0.28217,0.01388 -0.17115,0 -0.28217,-0.01388 -0.11102,-0.0093 -0.1804,-0.03238 -0.0648,-0.02313 -0.0925,-0.05551 -0.0277,-0.03701 -0.0277,-0.08326 V 38.02425 q 0,-0.04626 0.0231,-0.07864 0.0231,-0.03701 0.0833,-0.06013 0.0601,-0.02313 0.15265,-0.03238 0.0971,-0.01388 0.24054,-0.01388 0.14802,0 0.24516,0.01388 0.0971,0.0093 0.14803,0.03238 0.0555,0.02313 0.0786,0.06013 0.0231,0.03238 0.0231,0.07864 v 0.513459 q 0.16191,-0.231287 0.3053,-0.379312 0.1434,-0.15265 0.27292,-0.240539 0.12952,-0.08789 0.25905,-0.12027 0.12952,-0.03701 0.25904,-0.03701 0.0601,0 0.12952,0.0093 0.0694,0.0046 0.1434,0.02313 0.074,0.01388 0.12952,0.03701 0.0555,0.0185 0.0786,0.04163 0.0277,0.02313 0.037,0.05088 0.0139,0.02775 0.0231,0.07864 0.009,0.04626 0.0139,0.143398 0.005,0.09714 0.005,0.263668 z m 4.77378,1.637518 q 0,0.527336 -0.13878,0.962157 -0.13877,0.434822 -0.42094,0.749373 -0.28217,0.314552 -0.70774,0.485705 -0.42557,0.171153 -0.99454,0.171153 -0.55046,0 -0.95753,-0.15265 -0.40707,-0.15265 -0.67536,-0.444073 -0.26829,-0.291423 -0.39782,-0.716992 -0.12952,-0.42557 -0.12952,-0.971409 0,-0.527337 0.13878,-0.962158 0.14339,-0.439447 0.42557,-0.749372 0.28217,-0.314552 0.70311,-0.485705 0.42557,-0.171153 0.99454,-0.171153 0.55509,0 0.96216,0.15265 0.40706,0.148024 0.67073,0.439447 0.26829,0.291423 0.39782,0.716992 0.12952,0.42557 0.12952,0.976035 z m -1.19807,0.04626 q 0,-0.3053 -0.0509,-0.559717 -0.0463,-0.259042 -0.1619,-0.448698 -0.11564,-0.189656 -0.30993,-0.296049 -0.18965,-0.106392 -0.48107,-0.106392 -0.25905,0 -0.45333,0.09714 -0.19428,0.09251 -0.31918,0.277545 -0.12489,0.180405 -0.18965,0.439447 -0.0601,0.254417 -0.0601,0.582845 0,0.3053 0.0509,0.564343 0.0509,0.254416 0.1619,0.444072 0.11564,0.189656 0.30992,0.296049 0.19429,0.101766 0.48108,0.101766 0.26367,0 0.45795,-0.09251 0.19428,-0.09714 0.31918,-0.277545 0.1249,-0.180405 0.18503,-0.434821 0.0601,-0.259043 0.0601,-0.587471 z m 3.28428,2.058461 q 0,0.04626 -0.0277,0.08326 -0.0278,0.03238 -0.0971,0.05551 -0.0648,0.02313 -0.17578,0.03238 -0.11102,0.01388 -0.28217,0.01388 -0.17116,0 -0.28218,-0.01388 -0.11101,-0.0093 -0.1804,-0.03238 -0.0648,-0.02313 -0.0925,-0.05551 -0.0277,-0.03701 -0.0277,-0.08326 v -6.08287 q 0,-0.04626 0.0277,-0.08326 0.0278,-0.03701 0.0925,-0.06014 0.0694,-0.02775 0.1804,-0.04163 0.11102,-0.01388 0.28218,-0.01388 0.17115,0 0.28217,0.01388 0.11101,0.01388 0.17578,0.04163 0.0694,0.02313 0.0971,0.06014 0.0277,0.03701 0.0277,0.08326 z"
           id="text1"
           aria-label="Table Speed Control" />
        <g
           id="g6"
           transform="translate(-1.9796143)"
           style="stroke-width:1.44444441">
          <path
             style="color:#000000;fill:#000000;stroke-miterlimit:6;-inkscape-stroke:none"
             d="m 92.226562,-134.03516 c -23.986382,0 -43.445312,19.45893 -43.445312,43.445316 0,23.986383 19.45893,43.447266 43.445312,43.447266 23.986388,0 43.447268,-19.460883 43.447268,-43.447266 0,-23.986386 -19.46088,-43.445316 -43.447268,-43.445316 z m 0,1.44336 c 23.205748,0 42.001958,18.79621 42.001958,42.001956 0,23.205748 -18.79621,42.001953 -42.001958,42.001953 -23.205748,0 -42.001953,-18.796205 -42.001953,-42.001953 0,-23.205746 18.796205,-42.001956 42.001953,-42.001956 z"
             id="path1"
             transform="rotate(90)" />
          <path
             style="fill:#000000;stroke-miterlimit:6"
             d="m 92.847123,92.227072 h -4.51578"
             id="path2" />
          <path
             style="color:#000000;fill:#000000;stroke-miterlimit:6;-inkscape-stroke:none"
             d="m 128.75391,91.617187 v 1.44336 h 4.74414 v -1.44336 z"
             id="path3" />
          <path
             style="color:#000000;fill:#000000;stroke-miterlimit:6;-inkscape-stroke:none"
             d="m 47.681641,91.392578 v 1.445313 h 4.742187 v -1.445313 z"
             id="path3-8" />
          <path
             style="color:#000000;fill:#000000;stroke-miterlimit:6;-inkscape-stroke:none"
             d="m 89.158203,49.125 v 4.742187 h 1.443359 V 49.125 Z"
             id="path3-5" />
          <path
             style="color:#000000;fill:#000000;stroke-miterlimit:6;-inkscape-stroke:none"
             d="m 90.576172,130.58594 v 4.74218 h 1.445312 v -4.74218 z"
             id="path3-8-9" />
          <path
             style="color:#000000;fill:#000000;stroke-miterlimit:6;-inkscape-stroke:none"
             d="m 47.617187,87.742187 -0.125,1.439454 2.460938,0.214843 0.126953,-1.439453 z"
             id="path3-8-7" />
          <path
             style="color:#000000;fill:#000000;stroke-miterlimit:6;-inkscape-stroke:none"
             d="m 131.22461,95.056641 -0.125,1.439453 2.46094,0.214843 0.12695,-1.4375 z"
             id="path3-8-7-0" />
          <path
             style="color:#000000;fill:#000000;stroke-miterlimit:6;-inkscape-stroke:none"
             d="m 48.171875,84.013672 -0.251953,1.423828 2.435547,0.427734 0.25,-1.421875 z"
             id="path3-8-7-3" />
          <path
             style="color:#000000;fill:#000000;stroke-miterlimit:6;-inkscape-stroke:none"
             d="m 130.82422,98.587891 -0.25195,1.421879 2.43359,0.42968 0.25195,-1.421872 z"
             id="path3-8-7-0-3" />
          <path
             style="color:#000000;fill:#000000;stroke-miterlimit:6;-inkscape-stroke:none"
             d="m 49.048828,80.349609 -0.373047,1.394532 2.386719,0.638671 0.375,-1.394531 z"
             id="path3-8-7-33" />
          <path
             style="color:#000000;fill:#000000;stroke-miterlimit:6;-inkscape-stroke:none"
             d="m 130.11523,102.07031 -0.37304,1.39453 2.38672,0.64063 0.375,-1.39453 z"
             id="path3-8-7-0-1" />
          <path
             style="color:#000000;fill:#000000;stroke-miterlimit:6;-inkscape-stroke:none"
             d="m 50.242187,76.773437 -0.49414,1.357422 2.322265,0.845703 0.494141,-1.357421 z"
             id="path3-8-7-9" />
          <path
             style="color:#000000;fill:#000000;stroke-miterlimit:6;-inkscape-stroke:none"
             d="m 129.10742,105.47852 -0.49414,1.35742 2.32227,0.8457 0.49414,-1.35742 z"
             id="path3-8-7-0-8" />
          <path
             style="color:#000000;fill:#000000;stroke-miterlimit:6;-inkscape-stroke:none"
             d="m 51.742187,73.316406 -0.609375,1.308594 2.240235,1.044922 0.609375,-1.308594 z"
             id="path3-8-7-9-8" />
          <path
             style="color:#000000;fill:#000000;stroke-miterlimit:6;-inkscape-stroke:none"
             d="m 127.80664,108.78516 -0.61133,1.30859 2.24024,1.04492 0.61132,-1.30859 z"
             id="path3-8-7-0-8-8" />
          <path
             style="color:#000000;fill:#000000;stroke-miterlimit:6;-inkscape-stroke:none"
             d="m 53.539062,70.001953 -0.722656,1.25 2.140625,1.236328 0.722656,-1.25 z"
             id="path3-8-7-9-8-2" />
          <path
             style="color:#000000;fill:#000000;stroke-miterlimit:6;-inkscape-stroke:none"
             d="m 126.2207,111.96484 -0.7207,1.25196 2.14063,1.23633 0.7207,-1.25196 z"
             id="path3-8-7-0-8-8-7" />
          <path
             style="color:#000000;fill:#000000;stroke-miterlimit:6;-inkscape-stroke:none"
             d="m 55.617187,66.857422 -0.828125,1.183594 2.023438,1.417968 0.828125,-1.183593 z"
             id="path3-8-7-9-8-2-9" />
          <path
             style="color:#000000;fill:#000000;stroke-miterlimit:6;-inkscape-stroke:none"
             d="m 124.36523,114.99609 -0.82812,1.1836 2.02539,1.41797 0.82813,-1.1836 z"
             id="path3-8-7-0-8-8-7-0" />
          <path
             style="color:#000000;fill:#000000;stroke-miterlimit:6;-inkscape-stroke:none"
             d="m 57.960937,63.90625 -0.927734,1.105469 1.892578,1.589843 0.929688,-1.107421 z"
             id="path3-8-7-9-8-2-9-4" />
          <path
             style="color:#000000;fill:#000000;stroke-miterlimit:6;-inkscape-stroke:none"
             d="m 122.25195,117.85352 -0.92773,1.10546 1.89258,1.58985 0.92968,-1.10742 z"
             id="path3-8-7-0-8-8-7-0-6" />
          <path
             style="color:#000000;fill:#000000;stroke-miterlimit:6;-inkscape-stroke:none"
             d="m 60.552734,61.169922 -1.021484,1.021484 1.748047,1.748047 1.021484,-1.021484 z"
             id="path3-8-7-9-8-2-9-4-7" />
          <path
             style="color:#000000;fill:#000000;stroke-miterlimit:6;-inkscape-stroke:none"
             d="m 119.89844,120.51563 -1.02149,1.02148 1.74805,1.74805 1.02148,-1.02149 z"
             id="path3-8-7-0-8-8-7-0-6-0" />
          <path
             style="color:#000000;fill:#000000;stroke-miterlimit:6;-inkscape-stroke:none"
             d="m 63.375,58.669922 -1.107422,0.929687 1.589844,1.892578 1.105469,-0.927734 z"
             id="path3-8-7-9-8-2-9-4-7-2" />
          <path
             style="color:#000000;fill:#000000;stroke-miterlimit:6;-inkscape-stroke:none"
             d="m 117.32227,122.96094 -1.10743,0.92969 1.58985,1.89257 1.10547,-0.92773 z"
             id="path3-8-7-0-8-8-7-0-6-0-6" />
          <path
             style="color:#000000;fill:#000000;stroke-miterlimit:6;-inkscape-stroke:none"
             d="m 66.402344,56.425781 -1.183594,0.828125 1.417969,2.025391 1.183593,-0.828125 z"
             id="path3-8-7-9-8-2-9-4-7-2-1" />
          <path
             style="color:#000000;fill:#000000;stroke-miterlimit:6;-inkscape-stroke:none"
             d="m 114.54102,125.17383 -1.1836,0.83008 1.41797,2.02343 1.18359,-0.82812 z"
             id="path3-8-7-0-8-8-7-0-6-0-6-5" />
          <path
             style="color:#000000;fill:#000000;stroke-miterlimit:6;-inkscape-stroke:none"
             d="m 69.615234,54.455078 -1.251953,0.720703 1.236328,2.140625 1.251953,-0.720703 z"
             id="path3-8-7-9-8-2-9-4-7-2-1-0" />
          <path
             style="color:#000000;fill:#000000;stroke-miterlimit:6;-inkscape-stroke:none"
             d="m 111.57813,127.13672 -1.25,0.72266 1.23437,2.14062 1.25195,-0.72266 z"
             id="path3-8-7-0-8-8-7-0-6-0-6-5-6" />
          <path
             style="color:#000000;fill:#000000;stroke-miterlimit:6;-inkscape-stroke:none"
             d="m 72.986328,52.769531 -1.308594,0.611328 1.044922,2.240235 1.308594,-0.611328 z"
             id="path3-8-7-9-8-2-9-4-7-2-1-0-0" />
          <path
             style="color:#000000;fill:#000000;stroke-miterlimit:6;-inkscape-stroke:none"
             d="m 108.45508,128.83398 -1.3086,0.60938 1.04493,2.24023 1.30859,-0.60937 z"
             id="path3-8-7-0-8-8-7-0-6-0-6-5-6-0" />
          <path
             style="color:#000000;fill:#000000;stroke-miterlimit:6;-inkscape-stroke:none"
             d="m 76.492187,51.386719 -1.357421,0.49414 0.845703,2.322266 1.357422,-0.494141 z"
             id="path3-8-7-9-8-2-9-4-7-2-1-0-0-6" />
          <path
             style="color:#000000;fill:#000000;stroke-miterlimit:6;-inkscape-stroke:none"
             d="m 105.19727,130.25195 -1.35743,0.49414 0.84571,2.32227 1.35742,-0.49414 z"
             id="path3-8-7-0-8-8-7-0-6-0-6-5-6-0-2" />
          <path
             style="color:#000000;fill:#000000;stroke-miterlimit:6;-inkscape-stroke:none"
             d="m 80.105469,50.3125 -1.394532,0.375 0.640625,2.386719 1.394532,-0.373047 z"
             id="path3-8-7-9-8-2-9-4-7-2-1-0-0-6-6" />
          <path
             style="color:#000000;fill:#000000;stroke-miterlimit:6;-inkscape-stroke:none"
             d="m 101.82813,131.37891 -1.39454,0.375 0.63868,2.38671 1.39453,-0.37304 z"
             id="path3-8-7-0-8-8-7-0-6-0-6-5-6-0-2-6" />
          <path
             style="color:#000000;fill:#000000;stroke-miterlimit:6;-inkscape-stroke:none"
             d="m 83.798828,49.558594 -1.421875,0.25 0.429688,2.435547 1.421875,-0.251954 z"
             id="path3-8-7-9-8-2-9-4-7-2-1-0-0-6-6-0" />
          <path
             style="color:#000000;fill:#000000;stroke-miterlimit:6;-inkscape-stroke:none"
             d="m 98.373047,132.21094 -1.421875,0.25 0.427734,2.43359 1.423828,-0.25 z"
             id="path3-8-7-0-8-8-7-0-6-0-6-5-6-0-2-6-9" />
          <path
             style="color:#000000;fill:#000000;stroke-miterlimit:6;-inkscape-stroke:none"
             d="m 87.542969,49.128906 -1.4375,0.126953 0.214843,2.460938 1.439454,-0.125 z"
             id="path3-8-7-9-8-2-9-4-7-2-1-0-0-6-6-0-9" />
          <path
             style="color:#000000;fill:#000000;stroke-miterlimit:6;-inkscape-stroke:none"
             d="m 94.857422,132.73633 -1.4375,0.12695 0.214844,2.46094 1.439453,-0.125 z"
             id="path3-8-7-0-8-8-7-0-6-0-6-5-6-0-2-6-9-8" />
          <path
             style="color:#000000;fill:#000000;stroke-miterlimit:6;-inkscape-stroke:none"
             d="m 93.634766,49.128906 -0.214844,2.462891 1.4375,0.125 0.216797,-2.460938 z"
             id="path3-8-7-7" />
          <path
             style="color:#000000;fill:#000000;stroke-miterlimit:6;-inkscape-stroke:none"
             d="m 86.320312,132.73633 -0.214843,2.46289 1.4375,0.125 0.216797,-2.46094 z"
             id="path3-8-7-0-4" />
          <path
             style="color:#000000;fill:#000000;stroke-miterlimit:6;-inkscape-stroke:none"
             d="m 97.378906,49.558594 -0.427734,2.433593 1.421875,0.251954 0.429687,-2.435547 z"
             id="path3-8-7-3-6" />
          <path
             style="color:#000000;fill:#000000;stroke-miterlimit:6;-inkscape-stroke:none"
             d="m 82.806641,132.21094 -0.429688,2.43359 1.421875,0.25 0.429688,-2.43359 z"
             id="path3-8-7-0-3-4" />
          <path
             style="color:#000000;fill:#000000;stroke-miterlimit:6;-inkscape-stroke:none"
             d="m 101.07227,50.3125 -0.63868,2.388672 1.39454,0.373047 0.63867,-2.386719 z"
             id="path3-8-7-33-5" />
          <path
             style="color:#000000;fill:#000000;stroke-miterlimit:6;-inkscape-stroke:none"
             d="m 79.351562,131.37891 -0.640625,2.38867 1.394532,0.37304 0.640625,-2.38671 z"
             id="path3-8-7-0-1-8" />
          <path
             style="color:#000000;fill:#000000;stroke-miterlimit:6;-inkscape-stroke:none"
             d="m 104.68555,51.386719 -0.84571,2.322265 1.35743,0.494141 0.8457,-2.322266 z"
             id="path3-8-7-9-1" />
          <path
             style="color:#000000;fill:#000000;stroke-miterlimit:6;-inkscape-stroke:none"
             d="m 75.980469,130.25195 -0.845703,2.32227 1.357421,0.49414 0.845704,-2.32227 z"
             id="path3-8-7-0-8-4" />
          <path
             style="color:#000000;fill:#000000;stroke-miterlimit:6;-inkscape-stroke:none"
             d="m 108.19141,52.769531 -1.04493,2.240235 1.3086,0.611328 1.04492,-2.240235 z"
             id="path3-8-7-9-8-9" />
          <path
             style="color:#000000;fill:#000000;stroke-miterlimit:6;-inkscape-stroke:none"
             d="m 72.722656,128.83398 -1.044922,2.24024 1.308594,0.60937 1.044922,-2.24023 z"
             id="path3-8-7-0-8-8-77" />
          <path
             style="color:#000000;fill:#000000;stroke-miterlimit:6;-inkscape-stroke:none"
             d="m 111.5625,54.455078 -1.23437,2.140625 1.25,0.720703 1.23632,-2.140625 z"
             id="path3-8-7-9-8-2-8" />
          <path
             style="color:#000000;fill:#000000;stroke-miterlimit:6;-inkscape-stroke:none"
             d="m 69.599609,127.13672 -1.236328,2.14062 1.251953,0.72266 1.236328,-2.14062 z"
             id="path3-8-7-0-8-8-7-1" />
          <path
             style="color:#000000;fill:#000000;stroke-miterlimit:6;-inkscape-stroke:none"
             d="m 114.77539,56.425781 -1.41797,2.025391 1.1836,0.828125 1.41796,-2.025391 z"
             id="path3-8-7-9-8-2-9-3" />
          <path
             style="color:#000000;fill:#000000;stroke-miterlimit:6;-inkscape-stroke:none"
             d="m 66.636719,125.17383 -1.417969,2.02539 1.183594,0.82812 1.417968,-2.02343 z"
             id="path3-8-7-0-8-8-7-0-1" />
          <path
             style="color:#000000;fill:#000000;stroke-miterlimit:6;-inkscape-stroke:none"
             d="m 117.80469,58.669922 -1.58985,1.894531 1.10743,0.927734 1.58789,-1.892578 z"
             id="path3-8-7-9-8-2-9-4-2" />
          <path
             style="color:#000000;fill:#000000;stroke-miterlimit:6;-inkscape-stroke:none"
             d="m 63.857422,122.96094 -1.589844,1.89453 1.107422,0.92773 1.587891,-1.89257 z"
             id="path3-8-7-0-8-8-7-0-6-05" />
          <path
             style="color:#000000;fill:#000000;stroke-miterlimit:6;-inkscape-stroke:none"
             d="m 120.625,61.169922 -1.74805,1.748047 1.02149,1.021484 1.74804,-1.748047 z"
             id="path3-8-7-9-8-2-9-4-7-7" />
          <path
             style="color:#000000;fill:#000000;stroke-miterlimit:6;-inkscape-stroke:none"
             d="m 61.279297,120.51563 -1.748047,1.74804 1.021484,1.02149 1.748047,-1.74805 z"
             id="path3-8-7-0-8-8-7-0-6-0-64" />
          <path
             style="color:#000000;fill:#000000;stroke-miterlimit:6;-inkscape-stroke:none"
             d="m 123.2168,63.90625 -1.89258,1.587891 0.92773,1.107421 1.89453,-1.589843 z"
             id="path3-8-7-9-8-2-9-4-7-2-0" />
          <path
             style="color:#000000;fill:#000000;stroke-miterlimit:6;-inkscape-stroke:none"
             d="m 58.925781,117.85352 -1.892578,1.58789 0.927734,1.10742 1.894532,-1.58985 z"
             id="path3-8-7-0-8-8-7-0-6-0-6-8" />
          <path
             style="color:#000000;fill:#000000;stroke-miterlimit:6;-inkscape-stroke:none"
             d="m 125.5625,66.857422 -2.02539,1.417969 0.82812,1.183593 2.0254,-1.417968 z"
             id="path3-8-7-9-8-2-9-4-7-2-1-8" />
          <path
             style="color:#000000;fill:#000000;stroke-miterlimit:6;-inkscape-stroke:none"
             d="m 56.8125,114.99609 -2.023438,1.41797 0.828125,1.1836 2.025391,-1.41797 z"
             id="path3-8-7-0-8-8-7-0-6-0-6-5-9" />
          <path
             style="color:#000000;fill:#000000;stroke-miterlimit:6;-inkscape-stroke:none"
             d="m 127.64063,70.001953 -2.14063,1.236328 0.7207,1.25 2.14063,-1.236328 z"
             id="path3-8-7-9-8-2-9-4-7-2-1-0-6" />
          <path
             style="color:#000000;fill:#000000;stroke-miterlimit:6;-inkscape-stroke:none"
             d="m 54.957031,111.96484 -2.140625,1.23633 0.722656,1.25196 2.140625,-1.23633 z"
             id="path3-8-7-0-8-8-7-0-6-0-6-5-6-2" />
          <path
             style="color:#000000;fill:#000000;stroke-miterlimit:6;-inkscape-stroke:none"
             d="m 129.43555,73.316406 -2.24024,1.044922 0.61133,1.308594 2.24023,-1.044922 z"
             id="path3-8-7-9-8-2-9-4-7-2-1-0-0-4" />
          <path
             style="color:#000000;fill:#000000;stroke-miterlimit:6;-inkscape-stroke:none"
             d="m 53.373047,108.78516 -2.240235,1.04492 0.609375,1.30859 2.240235,-1.04492 z"
             id="path3-8-7-0-8-8-7-0-6-0-6-5-6-0-0" />
          <path
             style="color:#000000;fill:#000000;stroke-miterlimit:6;-inkscape-stroke:none"
             d="m 130.93555,76.773437 -2.32227,0.845704 0.49414,1.357421 2.32227,-0.845703 z"
             id="path3-8-7-9-8-2-9-4-7-2-1-0-0-6-1" />
          <path
             style="color:#000000;fill:#000000;stroke-miterlimit:6;-inkscape-stroke:none"
             d="m 52.070312,105.47852 -2.322265,0.8457 0.49414,1.35742 2.322266,-0.8457 z"
             id="path3-8-7-0-8-8-7-0-6-0-6-5-6-0-2-9" />
          <path
             style="color:#000000;fill:#000000;stroke-miterlimit:6;-inkscape-stroke:none"
             d="m 132.12891,80.349609 -2.38672,0.638672 0.37304,1.394531 2.38868,-0.638671 z"
             id="path3-8-7-9-8-2-9-4-7-2-1-0-0-6-6-4" />
          <path
             style="color:#000000;fill:#000000;stroke-miterlimit:6;-inkscape-stroke:none"
             d="m 51.0625,102.07031 -2.386719,0.64063 0.373047,1.39453 2.388672,-0.64063 z"
             id="path3-8-7-0-8-8-7-0-6-0-6-5-6-0-2-6-94" />
          <path
             style="color:#000000;fill:#000000;stroke-miterlimit:6;-inkscape-stroke:none"
             d="m 133.00586,84.013672 -2.43359,0.429687 0.25195,1.421875 2.43359,-0.427734 z"
             id="path3-8-7-9-8-2-9-4-7-2-1-0-0-6-6-0-5" />
          <path
             style="color:#000000;fill:#000000;stroke-miterlimit:6;-inkscape-stroke:none"
             d="m 50.355469,98.587891 -2.435547,0.429687 0.251953,1.421872 2.433594,-0.42968 z"
             id="path3-8-7-0-8-8-7-0-6-0-6-5-6-0-2-6-9-1" />
          <path
             style="color:#000000;fill:#000000;stroke-miterlimit:6;-inkscape-stroke:none"
             d="m 133.56055,87.742187 -2.46094,0.214844 0.125,1.439453 2.46289,-0.214843 z"
             id="path3-8-7-9-8-2-9-4-7-2-1-0-0-6-6-0-9-3" />
          <path
             style="color:#000000;fill:#000000;stroke-miterlimit:6;-inkscape-stroke:none"
             d="m 49.953125,95.056641 -2.460938,0.216796 0.125,1.4375 2.462891,-0.214843 z"
             id="path3-8-7-0-8-8-7-0-6-0-6-5-6-0-2-6-9-8-8" />
        </g>
        <path
           style="color:#000000;fill:#000000;stroke-miterlimit:6;-inkscape-stroke:none"
           d="m 41.947266,28.552734 c -3.404614,0 -6.169922,2.763355 -6.169922,6.167969 V 136.07617 c 0,3.40462 2.765308,6.16797 6.169922,6.16797 h 93.326174 c 3.40461,0 6.16797,-2.76335 6.16797,-6.16797 V 34.720703 c 0,-3.404614 -2.76336,-6.167969 -6.16797,-6.167969 z m 0,1.5 h 93.326174 c 2.59956,0 4.66797,2.068409 4.66797,4.667969 V 136.07617 c 0,2.59956 -2.06841,4.66797 -4.66797,4.66797 H 41.947266 c -2.599561,0 -4.669922,-2.06841 -4.669922,-4.66797 V 34.720703 c 0,-2.59956 2.070361,-4.667969 4.669922,-4.667969 z"
           id="rect6" />
      </g>
    </g>
  </g>
</svg>
